<?xml version="1.0" standalone="no"?>
<!DOCTYPE svg PUBLIC "-//W3C//DTD SVG 20010904//EN"
 "http://www.w3.org/TR/2001/REC-SVG-20010904/DTD/svg10.dtd">
<svg version="1.0" xmlns="http://www.w3.org/2000/svg"
 width="2000.000000pt" height="2000.000000pt" viewBox="0 0 2000.000000 2000.000000"
 preserveAspectRatio="xMidYMid meet">
<metadata>
Created by potrace 1.11, written by Peter Selinger 2001-2013
</metadata>
<g transform="translate(0.000000,2000.000000) scale(0.100000,-0.100000)"
fill="#000000" stroke="none">
<path d="M3325 16783 c-101 -8 -176 -40 -248 -103 -60 -53 -93 -102 -157 -229
-250 -501 -538 -1497 -674 -2336 -15 -88 -31 -187 -36 -220 -113 -694 -142
-1544 -69 -2039 6 -39 15 -100 20 -135 65 -442 229 -904 433 -1219 166 -256
481 -568 758 -750 92 -60 109 -79 56 -59 -18 6 -78 12 -133 12 -115 0 -154
-16 -187 -75 -37 -67 -7 -200 80 -344 50 -85 198 -242 298 -318 30 -22 53 -42
52 -44 -2 -1 -111 38 -243 88 -274 104 -331 114 -379 69 -40 -38 -49 -89 -42
-236 3 -71 10 -155 15 -185 5 -30 14 -95 21 -145 71 -553 218 -1012 406 -1278
19 -26 34 -49 34 -52 0 -2 -40 23 -88 55 -49 33 -95 60 -104 60 -8 0 -23 -9
-33 -20 -16 -17 -17 -31 -11 -115 14 -200 81 -461 164 -639 97 -205 259 -374
466 -485 33 -17 61 -33 63 -35 2 -2 -47 -9 -109 -16 -142 -15 -219 -31 -340
-70 -352 -112 -657 -374 -865 -742 -83 -146 -72 -164 79 -124 139 37 245 49
377 43 202 -10 372 -59 716 -207 346 -149 395 -169 533 -214 116 -37 190 -55
381 -92 13 -3 21 -7 19 -10 -9 -9 -359 -50 -499 -59 -233 -15 -213 -60 96
-215 383 -192 759 -275 1145 -254 228 12 241 11 385 -35 233 -76 336 -94 530
-94 221 -1 296 13 665 125 173 52 356 122 427 164 23 13 57 45 74 69 18 25 38
44 45 41 23 -9 272 -47 424 -65 189 -22 303 -31 715 -51 292 -15 279 -11 315
-77 53 -99 56 -94 -57 -88 -54 4 -165 13 -247 22 -166 17 -217 14 -290 -21
-105 -50 -339 -287 -397 -403 -31 -62 -42 -73 -54 -53 -3 6 -21 17 -38 26 -65
31 67 -80 139 -118 248 -130 551 -136 789 -15 143 72 246 165 294 267 50 106
30 270 -46 383 -18 27 -33 50 -33 51 0 0 138 1 308 2 260 0 332 4 472 23 156
21 335 58 390 80 23 9 22 10 -15 10 -22 1 -263 -4 -535 -10 -463 -11 -522 -10
-905 10 -633 33 -907 59 -1150 108 -44 8 -105 19 -135 24 -156 22 -785 229
-1185 389 -210 84 -515 239 -515 262 0 27 186 263 353 447 146 160 188 213
280 351 117 175 176 323 178 441 l1 56 193 12 c416 25 709 92 933 212 354 189
592 426 720 714 43 96 92 237 111 322 7 28 20 58 29 66 30 26 264 125 352 149
75 20 108 23 270 22 175 0 191 -2 300 -31 104 -29 375 -120 458 -154 l33 -14
3 -175 c4 -250 43 -396 145 -552 48 -74 183 -206 292 -285 121 -89 395 -226
587 -293 47 -17 91 -35 98 -41 6 -5 49 -23 93 -38 84 -29 106 -41 79 -41 -8 0
-48 -15 -89 -34 -114 -52 -381 -144 -513 -177 -210 -51 -325 -63 -596 -63
-375 1 -509 23 -1044 172 -16 4 -17 2 -8 -15 27 -49 238 -133 447 -177 233
-48 351 -60 635 -60 329 -1 488 21 740 99 107 33 324 138 413 199 l68 47 136
-46 c385 -129 748 -188 1025 -166 135 10 209 3 234 -23 5 -6 16 -29 23 -51 11
-34 83 -220 196 -511 76 -193 195 -439 258 -532 16 -24 25 -47 21 -52 -12 -10
-311 -116 -494 -174 -460 -145 -1007 -265 -1652 -362 -85 -13 -44 -42 71 -51
l80 -6 -14 -26 c-7 -14 -21 -53 -30 -86 -10 -33 -21 -64 -25 -70 -9 -12 14
-197 35 -284 24 -95 61 -159 130 -226 59 -57 63 -64 70 -119 10 -75 1 -151
-35 -311 -33 -146 -28 -173 20 -115 16 19 30 32 30 29 0 -13 -120 -341 -160
-434 -119 -280 -201 -402 -454 -675 -200 -216 -252 -277 -332 -396 -79 -116
-145 -252 -176 -361 -17 -60 -22 -106 -22 -203 -1 -69 2 -140 6 -157 4 -18 4
-33 0 -33 -4 0 -34 42 -67 93 -242 372 -335 561 -380 779 -35 162 -37 408 -9
703 7 64 6 69 -9 56 -21 -17 -51 -111 -82 -256 -13 -60 -37 -145 -54 -187 -64
-161 -110 -397 -118 -603 -4 -121 -2 -152 16 -229 12 -48 21 -90 19 -92 -6 -5
-163 281 -212 386 -56 122 -101 248 -120 344 -20 96 -20 281 -1 366 20 84 99
243 175 348 33 46 60 87 60 93 0 32 -82 -21 -148 -96 -57 -65 -107 -142 -141
-217 -15 -35 -56 -106 -91 -158 -82 -125 -155 -271 -180 -362 -11 -40 -23
-116 -26 -168 -6 -81 -3 -106 16 -170 37 -125 45 -117 54 55 6 126 42 271 106
434 61 153 72 173 64 110 -8 -59 12 -238 36 -333 51 -192 205 -461 380 -661
29 -33 66 -75 82 -94 16 -18 31 -31 33 -29 3 2 -2 40 -11 84 -23 114 -33 345
-23 524 9 156 42 446 51 455 3 3 8 -45 11 -107 11 -203 54 -368 145 -560 81
-172 196 -330 374 -514 48 -50 88 -96 88 -103 0 -6 4 -11 9 -11 5 0 10 65 13
145 2 111 7 148 18 159 8 8 69 45 135 81 66 37 135 78 153 92 18 14 35 23 37
22 2 -2 -5 -37 -15 -78 -54 -216 -71 -610 -41 -938 l14 -153 53 0 53 0 -5 68
c-3 37 -6 110 -6 161 1 67 -2 91 -9 80 -11 -15 -4 692 8 810 6 59 9 66 51 107
60 57 65 49 8 -12 -40 -41 -45 -52 -41 -82 6 -50 12 -50 20 0 10 61 21 77 50
74 13 -2 22 0 20 4 -3 5 2 11 11 14 9 4 14 9 11 13 -4 3 -13 0 -22 -7 -9 -7
-19 -10 -23 -6 -4 4 1 12 11 17 11 7 16 17 12 28 -3 11 6 28 27 48 46 43 72
55 87 40 9 -9 16 -9 32 1 11 7 29 10 40 7 13 -4 19 -2 17 7 -6 28 -67 31 -67
3 1 -17 -18 -17 -25 0 -3 9 -2 13 3 10 5 -3 16 3 23 13 25 34 69 54 101 48 28
-6 29 -5 13 7 -17 12 -12 17 54 51 40 21 70 35 67 30 -3 -5 19 -9 48 -9 29 0
51 3 49 7 -3 4 5 17 17 29 20 20 20 22 3 15 -29 -12 -60 -20 -54 -13 17 18
141 57 184 58 33 0 44 3 32 8 -14 5 -5 10 34 19 28 7 62 12 74 12 12 0 27 5
33 11 7 7 34 12 61 13 28 1 48 4 46 7 -6 10 214 41 238 33 13 -4 18 -2 14 4
-4 7 16 13 51 17 57 6 87 11 233 40 56 10 76 11 82 3 3 -7 4 -16 2 -20 -3 -4
2 -5 11 -1 14 5 14 8 3 15 -10 8 -10 9 2 5 8 -2 15 -11 15 -19 0 -8 6 -22 13
-31 10 -12 10 -16 0 -20 -10 -4 -10 -6 -1 -6 12 -1 43 -51 43 -69 0 -6 -7 -9
-16 -8 -25 2 -27 -17 -6 -42 12 -14 22 -18 29 -11 10 10 83 -132 83 -164 0 -9
4 -17 8 -17 4 0 13 -12 19 -27 7 -16 28 -55 47 -88 35 -61 48 -96 21 -61 -15
20 -15 20 -15 0 0 -16 -2 -17 -10 -4 -8 13 -10 12 -10 -3 0 -12 6 -17 18 -15
14 2 16 -3 14 -29 -2 -25 1 -33 12 -33 9 0 16 -5 16 -12 0 -6 3 -9 6 -6 3 4 1
15 -4 25 -7 12 -7 25 -1 34 7 12 9 12 10 -1 1 -8 3 -19 4 -25 2 -5 3 -15 4
-21 0 -5 10 -20 22 -32 11 -13 17 -28 13 -35 -4 -6 -4 -9 1 -5 10 10 35 -24
40 -55 3 -12 11 -26 18 -32 7 -5 25 -34 40 -64 22 -43 25 -56 15 -64 -10 -7
-9 -8 3 -4 11 4 23 -7 38 -34 22 -38 18 -51 -8 -26 -11 10 -11 8 -2 -11 7 -12
16 -20 21 -17 6 4 9 -4 7 -17 -1 -16 3 -22 14 -20 9 1 21 -9 27 -24 14 -29 8
-46 -13 -37 -8 3 -15 1 -15 -5 0 -5 13 -8 29 -7 21 2 28 -1 24 -11 -2 -7 5
-17 16 -24 12 -6 21 -16 21 -23 0 -7 -4 -6 -10 3 -6 9 -10 10 -10 3 0 -7 7
-16 16 -21 9 -5 15 -12 15 -15 -3 -20 0 -28 9 -22 6 4 7 -1 3 -11 -4 -11 -2
-15 4 -11 6 4 14 0 17 -9 3 -8 2 -12 -3 -9 -5 3 -13 0 -17 -7 -4 -7 -4 -10 1
-6 14 13 47 -12 40 -30 -3 -9 -3 -13 1 -9 4 4 25 -23 46 -59 21 -37 36 -69 33
-72 -3 -3 -5 0 -5 7 0 7 -5 9 -12 5 -7 -5 -8 -3 -3 6 5 8 4 11 -3 6 -16 -10
-3 -36 19 -36 10 0 19 -7 19 -15 0 -8 4 -15 10 -15 12 0 32 -37 39 -73 3 -15
10 -27 14 -27 13 2 36 -33 30 -43 -3 -5 -10 -3 -15 4 -8 11 -9 11 -5 -1 2 -8
12 -15 23 -15 12 0 18 -6 18 -17 -1 -10 2 -15 7 -12 5 3 9 -2 9 -10 0 -9 4
-16 10 -16 5 0 6 -7 3 -17 -4 -10 -2 -14 5 -9 6 3 16 -3 22 -14 9 -16 21 -20
65 -20 30 0 55 3 55 6 0 3 -51 98 -114 212 -62 114 -135 248 -161 297 -27 50
-59 107 -72 127 -13 21 -23 40 -23 42 0 5 -47 84 -360 601 -114 188 -290 513
-290 535 0 4 28 14 63 24 84 23 233 96 284 140 58 50 101 119 108 175 4 25 18
93 33 151 23 87 27 127 27 235 0 147 -20 232 -74 317 l-30 48 37 19 c76 39
120 79 147 134 43 89 38 154 -34 466 -34 145 -60 265 -59 267 2 2 23 -4 47
-12 120 -41 339 -43 447 -3 32 12 63 25 67 29 5 4 -53 54 -129 111 -198 150
-197 150 -106 113 197 -79 388 -109 797 -124 485 -17 595 -45 855 -217 144
-95 261 -192 274 -225 14 -38 22 -35 40 15 44 118 38 302 -15 461 -58 175
-182 373 -303 484 -26 24 -46 45 -44 47 2 2 32 -3 68 -11 186 -39 304 -49 565
-48 280 1 397 14 620 70 285 72 598 229 827 413 140 113 323 320 377 428 29
58 27 103 -5 134 -23 21 -34 24 -97 22 -40 0 -144 -15 -232 -32 -252 -48 -397
-72 -403 -67 -6 6 2 9 78 26 195 43 596 202 805 317 483 267 803 584 1148
1138 300 484 457 819 457 978 0 39 -23 102 -42 113 -52 32 -141 20 -333 -46
-66 -22 -151 -52 -190 -65 -229 -78 -478 -130 -900 -190 -60 -8 -138 -20 -172
-25 -35 -6 -91 -14 -125 -20 -269 -42 -343 -55 -493 -85 -93 -19 -207 -45
-252 -59 -46 -13 -83 -22 -83 -20 0 3 17 19 38 36 175 150 356 347 845 927
414 490 477 574 485 650 8 84 -31 120 -144 136 -180 24 -795 -112 -1222 -271
-80 -30 -149 -54 -154 -54 -4 0 -8 46 -8 103 0 90 -21 350 -34 432 -3 17 -10
62 -16 100 -18 112 -70 342 -101 448 -16 54 -27 102 -24 108 4 5 19 9 34 9 16
0 73 12 127 26 71 19 120 26 175 25 215 -5 616 133 864 296 504 332 868 925
1085 1766 114 442 161 730 202 1242 19 243 16 979 -5 1225 -45 511 -102 889
-183 1218 -69 282 -137 460 -234 610 -159 249 -368 305 -865 231 -214 -31
-735 -116 -860 -139 -94 -17 -647 -107 -865 -140 -696 -106 -1108 -195 -1600
-346 -901 -277 -1483 -639 -1794 -1116 -147 -227 -235 -467 -252 -694 -4 -46
-10 -84 -13 -84 -21 1 -187 410 -236 580 -86 298 -140 713 -134 1025 3 161 1
174 -26 200 -31 32 -37 31 -74 -5 -64 -64 -285 -464 -366 -660 -154 -376 -221
-727 -195 -1021 6 -67 9 -123 7 -125 -1 -2 -30 34 -64 79 -184 244 -408 442
-650 577 -232 129 -444 189 -823 232 -162 18 -845 14 -1240 -8 -238 -13 -482
-18 -845 -19 -548 0 -615 4 -969 56 -326 47 -362 51 -406 39 -50 -14 -74 -54
-65 -110 12 -73 236 -440 405 -665 348 -463 845 -830 1370 -1010 149 -51 427
-125 472 -125 15 0 28 -4 28 -9 0 -11 -25 -21 -51 -21 -28 0 -189 -64 -294
-116 -500 -252 -896 -777 -997 -1321 -16 -91 -22 -159 -22 -298 -1 -171 -2
-180 -21 -183 -11 -2 -74 -24 -140 -49 -290 -110 -543 -290 -610 -435 -58
-124 -12 -222 132 -279 50 -20 76 -23 193 -24 146 0 218 12 390 68 52 16 111
29 130 28 86 -4 315 78 429 154 87 57 187 164 226 241 39 77 43 175 8 223 -13
16 -23 34 -22 38 0 4 105 60 232 123 126 63 298 151 381 196 83 44 200 106
260 138 162 86 346 197 433 263 70 52 213 182 188 170 -5 -3 -71 -42 -145 -87
-127 -77 -516 -275 -660 -335 -63 -26 -606 -296 -740 -367 l-66 -35 -74 13
c-114 20 -245 16 -417 -12 l-43 -7 0 84 c0 240 70 525 189 766 104 211 211
361 377 526 210 210 427 341 759 457 132 46 129 46 425 42 91 -1 179 2 195 7
28 9 27 9 -19 10 -26 1 -89 9 -140 19 -76 14 -84 17 -51 20 22 1 65 -4 95 -12
30 -8 56 -13 58 -12 1 2 -21 14 -50 27 -48 22 -68 24 -223 26 -162 2 -177 4
-326 42 -511 130 -915 315 -1243 569 -87 68 -307 264 -345 309 -14 15 -52 60
-86 98 -89 100 -215 270 -312 417 -84 128 -193 324 -193 347 0 15 20 13 312
-34 573 -94 925 -104 1951 -56 632 30 776 33 987 21 601 -33 917 -142 1275
-442 173 -145 419 -417 473 -524 12 -23 36 -82 55 -131 42 -111 89 -197 166
-301 57 -77 91 -106 91 -78 0 7 -27 67 -59 132 -277 559 -241 1205 104 1894
40 80 176 330 180 330 1 0 0 -78 -3 -174 -10 -357 53 -768 164 -1078 110 -306
321 -648 516 -834 54 -52 128 -104 128 -90 0 2 -21 28 -46 58 -56 65 -195 270
-229 339 l-26 50 20 113 c25 135 73 280 147 435 312 657 1003 1086 2266 1406
352 89 641 145 1193 230 198 31 578 92 845 136 822 135 926 151 1173 174 69 6
208 -12 271 -35 221 -83 376 -453 496 -1182 159 -967 149 -2055 -26 -2883
-120 -564 -275 -996 -486 -1348 -201 -337 -437 -571 -748 -744 -197 -110 -626
-285 -641 -262 -12 20 -188 -12 -326 -61 l-52 -18 -22 66 c-12 37 -41 118 -64
179 l-43 112 56 48 c181 155 427 538 567 885 154 379 224 804 275 1673 31 541
56 845 110 1375 58 561 64 599 142 840 84 260 145 510 124 510 -10 0 -42 -71
-106 -231 -90 -224 -141 -341 -244 -554 -163 -336 -286 -535 -537 -870 -168
-224 -246 -337 -339 -490 -88 -144 -215 -402 -265 -540 -75 -201 -155 -572
-184 -850 -17 -165 -34 -631 -27 -760 13 -238 55 -432 111 -515 13 -19 49
-107 80 -195 31 -88 78 -218 105 -290 170 -452 258 -770 309 -1120 28 -191 53
-528 40 -539 -2 -2 -67 -35 -144 -74 -241 -122 -409 -238 -566 -389 l-110
-106 -37 18 c-20 9 -66 28 -102 40 -273 97 -474 187 -707 317 -78 44 -146 77
-151 74 -10 -6 -19 12 -68 131 -123 304 -319 571 -546 747 -448 345 -1095 392
-1643 118 -230 -114 -445 -291 -588 -481 -175 -234 -319 -556 -383 -858 -20
-96 -54 -333 -54 -381 0 -11 -58 -12 -302 -10 -167 2 -395 1 -508 0 -201 -4
-205 -3 -208 17 -3 20 -22 30 -22 12 0 -5 -11 -23 -25 -39 -16 -19 -21 -32
-14 -39 6 -6 4 -32 -6 -74 -8 -35 -15 -81 -15 -101 0 -21 -2 -38 -5 -38 -3 0
-29 18 -57 41 -70 55 -292 163 -399 193 -229 65 -500 62 -705 -8 -78 -26 -170
-71 -228 -111 -28 -19 -37 -22 -32 -10 24 64 13 405 -15 457 l-13 23 -9 -32
c-11 -36 -17 -39 -147 -48 l-85 -6 -1 233 c-2 236 -18 385 -60 553 -69 276
-205 523 -389 707 -105 106 -189 167 -298 218 -278 130 -576 156 -893 80 -460
-111 -917 -445 -1207 -885 -66 -100 -187 -337 -188 -369 -2 -50 -19 47 -40
232 -21 174 -23 245 -24 617 0 351 3 440 18 545 49 343 109 568 239 898 46
115 67 156 83 164 29 13 45 48 45 96 0 63 116 279 252 471 33 46 57 85 55 87
-6 7 -157 -154 -208 -221 -38 -50 -97 -141 -145 -221 -11 -19 -31 9 -193 283
-85 142 -196 301 -354 507 -393 509 -523 708 -688 1051 -94 196 -172 397 -237
615 -170 563 -243 970 -268 1490 -6 118 -9 140 -18 115 -6 -19 -10 -179 -10
-420 -1 -214 -4 -395 -8 -401 -12 -18 -76 -463 -97 -674 -78 -783 -75 -1344
10 -1910 120 -800 412 -1452 844 -1886 159 -159 215 -205 386 -309 79 -48 152
-94 162 -103 15 -13 17 -36 17 -188 0 -187 22 -495 45 -639 8 -49 29 -139 46
-200 17 -60 31 -117 31 -125 0 -8 -13 -68 -31 -133 -17 -65 -34 -156 -37 -203
-4 -46 -9 -84 -11 -84 -2 0 -44 43 -94 94 -160 168 -274 227 -744 386 -326
110 -334 114 -488 211 -268 170 -437 334 -519 505 -50 104 -60 180 -28 209 19
18 35 20 124 18 107 -2 168 -15 370 -77 66 -20 126 -35 135 -34 8 2 -46 41
-120 88 -364 230 -730 549 -929 810 -198 260 -324 527 -433 920 -49 173 -102
500 -127 768 -16 178 -14 681 5 907 91 1123 332 2226 682 3120 114 291 200
442 281 499 59 41 123 56 231 56 143 0 142 0 1256 -205 1914 -352 2861 -642
3389 -1039 107 -81 211 -195 234 -259 23 -60 37 -69 53 -33 10 21 8 36 -11 88
-32 88 -62 132 -144 213 -164 162 -484 342 -866 487 -352 135 -908 290 -1462
409 -79 17 -183 39 -233 50 -189 41 -788 160 -950 189 -27 5 -174 32 -325 60
-498 93 -709 128 -845 140 -60 5 -114 9 -120 8 -5 -1 -28 -3 -50 -5z m13549
-1988 c-70 -327 -132 -867 -169 -1480 -60 -1004 -86 -1229 -191 -1615 -80
-299 -236 -628 -420 -889 -59 -84 -215 -260 -227 -258 -4 1 -34 63 -66 137
-32 74 -86 191 -120 259 -56 110 -64 136 -82 240 -28 169 -33 334 -20 616 34
704 121 1105 334 1530 111 222 223 396 472 730 78 105 172 233 207 285 77 111
211 344 258 448 18 40 34 71 36 69 2 -1 -4 -34 -12 -72z m-13114 -361 c29
-253 155 -714 275 -1009 184 -450 318 -665 850 -1360 164 -215 223 -301 345
-505 51 -85 108 -176 126 -201 19 -26 34 -53 34 -61 0 -8 -25 -68 -55 -132
-157 -333 -234 -581 -285 -913 -20 -135 -37 -313 -32 -350 2 -19 -12 -13 -114
48 -169 101 -191 118 -320 242 -458 438 -761 1106 -878 1932 -39 276 -48 406
-53 789 -6 417 1 599 43 1096 13 162 27 346 31 408 3 64 10 109 15 104 5 -5
13 -44 18 -88z m3380 -3209 c0 -2 -9 -9 -20 -15 -16 -9 -20 -8 -20 5 0 8 9 15
20 15 11 0 20 -2 20 -5z m9255 -1075 c-3 -5 -11 -10 -16 -10 -6 0 -7 5 -4 10
3 6 11 10 16 10 6 0 7 -4 4 -10z m-10315 -1071 c-130 -200 -267 -525 -309
-733 -16 -80 -21 -91 -42 -97 -27 -8 -239 -12 -239 -5 0 13 58 162 90 231 43
95 143 262 207 348 48 64 342 362 349 354 3 -3 -23 -47 -56 -98z m11549 12
c14 -4 26 -11 28 -17 5 -15 -64 -124 -138 -216 -37 -46 -140 -169 -230 -274
-90 -105 -220 -258 -289 -339 -223 -263 -261 -307 -456 -520 -285 -311 -291
-317 -408 -365 -124 -50 -292 -138 -371 -195 -70 -50 -168 -136 -161 -142 2
-2 50 23 107 55 96 55 272 139 328 157 16 5 21 4 17 -4 -11 -17 -1 -14 72 24
168 87 586 179 1282 280 603 87 735 116 1107 241 154 52 298 94 318 94 l38 0
-7 -52 c-18 -136 -125 -366 -326 -703 -303 -508 -546 -808 -840 -1036 -156
-121 -285 -200 -490 -303 -473 -236 -919 -352 -1515 -396 -221 -16 -455 -26
-455 -19 0 4 26 28 58 54 72 59 187 184 264 289 116 155 289 470 338 610 49
144 2 218 -119 188 -25 -7 -248 -113 -496 -236 -247 -124 -479 -238 -515 -254
-172 -78 -440 -214 -440 -224 0 -16 81 -3 190 30 252 79 565 213 880 377 272
141 410 208 416 202 8 -8 -62 -173 -123 -287 -244 -459 -518 -734 -938 -941
-223 -110 -507 -194 -780 -234 -106 -15 -406 -37 -413 -30 -2 2 43 26 100 53
155 76 294 162 451 280 135 101 326 274 369 335 40 57 9 47 -92 -29 -193 -144
-620 -414 -789 -498 -109 -55 -318 -146 -334 -146 -31 1 -203 340 -312 620
-70 179 -150 365 -181 419 -13 24 -24 44 -24 45 0 0 71 1 158 2 445 1 785 146
1050 447 35 40 90 90 122 113 107 74 204 157 302 256 164 168 253 317 309 518
17 63 45 140 60 170 34 65 54 179 45 244 -6 35 -15 52 -40 72 -57 46 -164 86
-246 93 l-75 6 -11 135 c-17 200 -62 441 -94 501 -6 10 -10 30 -10 44 l0 27
38 -30 c56 -43 175 -118 266 -167 78 -42 364 -165 416 -180 48 -13 180 -67
180 -74 0 -4 -20 -39 -45 -78 -138 -222 -215 -452 -215 -644 0 -36 3 -69 7
-73 4 -4 22 51 39 121 97 400 360 758 739 1006 92 60 354 207 369 207 3 0 6
-9 6 -21 0 -88 85 -71 97 20 3 22 11 45 17 50 6 4 54 25 106 46 448 177 1144
337 1289 296z m-14394 -174 c432 -169 868 -327 1125 -407 144 -45 307 -117
387 -170 26 -18 76 -60 110 -92 68 -65 68 -65 -21 -87 -72 -18 -173 -66 -185
-89 -6 -11 -8 -27 -5 -36 3 -8 -2 -82 -11 -163 -24 -210 -10 -409 46 -618 45
-172 107 -297 202 -408 l50 -59 -46 -146 c-132 -422 -128 -652 14 -936 113
-224 238 -361 539 -589 191 -145 379 -254 615 -355 276 -119 719 -275 1025
-362 102 -28 195 -55 208 -58 55 -17 17 -46 -148 -113 -139 -56 -501 -168
-625 -193 -200 -41 -379 -39 -620 4 -60 11 -127 20 -150 20 -69 0 -74 17 -9
30 274 57 566 187 692 308 75 71 70 72 -68 12 -146 -65 -432 -167 -544 -195
-300 -75 -702 -91 -986 -39 -166 30 -442 111 -625 184 -65 26 -205 90 -205 93
0 1 73 0 162 -1 359 -8 706 62 985 199 102 50 195 120 180 135 -5 5 -43 -4
-85 -20 -247 -93 -504 -114 -776 -65 -166 30 -399 114 -801 291 -346 153 -531
202 -750 201 -159 -1 -242 -18 -369 -77 -42 -19 -76 -32 -76 -29 0 16 127 190
197 268 256 288 547 464 882 533 74 15 140 17 474 16 213 -1 387 2 387 6 0 19
-120 47 -320 75 -95 13 -131 24 -206 59 -167 79 -339 212 -442 341 -110 139
-213 374 -267 615 -26 112 -42 240 -31 240 3 0 46 -33 94 -74 137 -115 216
-172 369 -262 140 -83 244 -133 331 -159 50 -16 172 -30 172 -21 0 3 -70 39
-154 80 -202 97 -277 148 -411 281 -221 219 -364 502 -470 928 -88 359 -160
922 -125 987 13 24 13 24 285 -83z m4593 17 c186 -93 234 -452 91 -675 l-39
-59 -143 0 c-114 0 -147 3 -165 16 -32 22 -101 165 -118 243 -17 80 -18 172
-3 243 23 111 103 217 184 246 57 20 137 14 193 -14z m3987 -64 c147 -91 170
-348 55 -623 -39 -95 -110 -181 -179 -220 -94 -53 -221 -39 -284 31 -11 12
-26 18 -38 15 -33 -9 -49 49 -49 186 0 102 5 138 34 253 18 73 45 156 59 184
36 71 109 148 170 179 45 23 61 26 123 22 52 -3 82 -10 109 -27z m1885 -140
c126 -253 234 -582 252 -769 l3 -33 -120 1 c-66 1 -120 3 -122 4 -1 2 -4 106
-6 232 -6 257 -25 426 -67 585 -15 58 -30 114 -34 125 -20 54 42 -40 94 -145z
m-6270 -355 c18 -20 24 -36 23 -67 -3 -57 -33 -88 -88 -88 -50 0 -83 29 -91
82 -5 27 -1 40 21 66 22 27 34 32 69 32 33 0 48 -6 66 -25z m4657 -217 c25
-21 43 -74 37 -108 -4 -17 -20 -42 -37 -56 -26 -22 -38 -25 -76 -21 -60 7 -91
41 -91 100 0 43 19 75 55 96 24 14 90 8 112 -11z m-6364 -190 c-7 -210 5 -327
53 -514 20 -77 42 -168 49 -204 41 -208 90 -334 152 -391 45 -41 81 -60 85
-47 5 13 26 -1 125 -85 77 -64 286 -169 402 -201 51 -14 96 -28 100 -31 3 -4
-62 -5 -144 -3 l-150 3 -113 64 c-125 70 -193 118 -325 230 -346 290 -529 701
-514 1151 7 207 -3 194 155 198 l130 3 -5 -173z m2702 110 c-3 -24 -10 -63
-16 -88 -5 -25 -21 -103 -34 -173 -20 -105 -30 -137 -55 -170 -33 -44 -42 -79
-15 -57 12 10 15 9 15 -7 0 -32 -77 -230 -122 -313 -40 -75 -125 -196 -153
-220 -14 -11 -14 -10 -5 15 6 15 8 42 4 60 -4 23 4 64 25 132 44 142 71 266
71 327 0 29 9 102 19 162 18 100 38 246 44 319 2 30 2 30 81 37 43 4 84 9 90
12 6 2 22 5 34 5 22 1 23 -2 17 -41z m-3406 -19 c19 -25 32 -58 36 -87 56
-465 225 -808 534 -1085 149 -134 421 -293 591 -346 135 -42 170 -53 170 -56
0 -3 -34 0 -285 25 -416 43 -722 132 -925 270 -94 64 -94 64 -65 151 33 96 69
303 57 325 -12 21 -38 -35 -103 -213 -24 -68 -47 -123 -51 -123 -10 0 -75 95
-106 157 -76 151 -122 344 -147 619 -19 213 -20 353 -2 359 6 3 66 13 132 24
66 10 123 19 127 20 5 0 21 -17 37 -40z m5201 -169 c63 -5 225 -14 360 -20
135 -6 286 -13 336 -16 l92 -6 6 -176 c3 -98 10 -237 14 -310 5 -73 6 -152 2
-175 -10 -50 2 -332 14 -344 4 -4 28 -8 52 -8 26 0 44 -5 44 -12 0 -6 19 -37
43 -70 24 -32 59 -79 78 -105 105 -143 138 -179 260 -279 105 -85 224 -151
342 -189 21 -7 37 -14 35 -15 -5 -5 -186 40 -218 53 -14 6 -76 25 -139 42
-119 33 -348 118 -591 218 -515 213 -757 394 -862 644 -56 133 -69 224 -75
522 l-6 268 49 -6 c27 -4 101 -11 164 -16z m3716 -90 l41 0 6 -147 c7 -161 -4
-336 -29 -478 -50 -277 -194 -594 -331 -727 -84 -82 -512 -216 -903 -283 -181
-31 -228 -29 -110 4 189 53 395 149 498 231 17 14 50 39 73 55 23 17 83 69
133 116 50 47 104 93 119 103 35 21 84 97 98 151 6 22 20 72 31 110 12 39 22
90 23 115 1 25 14 90 28 146 35 132 54 257 67 429 16 209 3 189 118 182 53 -4
115 -7 138 -7z m665 -50 c88 -35 87 -30 61 -182 -21 -128 -24 -135 -107 -296
-95 -183 -177 -301 -284 -407 -39 -38 -71 -67 -71 -63 0 3 18 41 40 84 98 192
169 488 186 778 l7 119 58 -6 c31 -4 81 -16 110 -27z m-9538 -1063 c23 -18 79
-51 124 -75 253 -132 588 -208 1031 -234 162 -9 202 -15 202 -26 0 -30 -62
-198 -97 -261 -96 -172 -200 -312 -385 -518 -128 -142 -291 -344 -320 -395
-12 -21 -26 -38 -31 -38 -28 0 -286 211 -387 316 -131 137 -236 311 -280 466
-27 94 -36 256 -21 373 19 143 93 425 112 425 5 0 28 -15 52 -33z m8054 -567
c-163 -59 -387 -102 -395 -75 -1 6 8 11 20 13 66 9 284 55 358 76 129 36 138
30 17 -14z m4019 -745 c-13 -34 -88 -135 -163 -220 -256 -288 -670 -513 -1104
-599 -189 -37 -371 -50 -629 -43 -375 10 -562 40 -731 118 -149 68 -252 101
-302 97 l-42 -3 120 -63 c287 -151 482 -317 614 -522 81 -126 165 -373 177
-521 7 -84 -3 -104 -26 -49 -20 47 -207 219 -299 274 -201 121 -356 152 -811
166 -413 12 -562 37 -795 130 -197 79 -356 175 -477 289 -50 47 -68 59 -68 45
0 -11 10 -35 21 -54 33 -53 199 -239 271 -302 129 -114 307 -229 412 -269 32
-11 56 -22 54 -24 -2 -1 -88 1 -193 5 -165 7 -201 12 -272 34 l-82 27 -25 82
c-43 136 -70 177 -146 214 -125 63 -290 89 -500 80 -144 -6 -260 -26 -516 -87
-193 -46 -456 -102 -460 -97 -2 2 1 43 7 90 13 100 4 92 134 101 182 13 504
74 881 166 373 92 771 218 1090 346 143 57 164 63 190 54 60 -23 195 -31 343
-20 505 38 948 190 1304 447 l90 65 81 -11 c45 -6 110 -13 146 -16 36 -4 99
-13 140 -20 123 -24 272 -35 454 -35 277 0 467 21 836 90 306 58 284 55 276
35z m-4808 -1223 c-27 -11 -7 -27 37 -29 l40 -2 -30 14 c-25 11 -26 14 -9 14
12 1 42 -2 68 -5 34 -5 44 -10 34 -16 -9 -7 -5 -8 12 -4 24 5 24 4 6 -9 -19
-14 -18 -15 15 -15 25 0 30 3 19 10 -20 13 -7 12 27 -2 15 -6 31 -11 36 -10 4
1 7 -3 7 -9 0 -5 4 -8 9 -4 13 7 53 -36 47 -51 -3 -7 2 -15 10 -18 9 -3 13
-10 9 -15 -3 -5 -1 -12 5 -16 5 -3 10 -14 10 -23 0 -15 -2 -15 -10 -2 -8 13
-10 13 -10 -2 0 -9 7 -21 16 -26 9 -5 16 -13 16 -18 0 -5 4 -19 9 -32 5 -13 9
-29 9 -36 0 -7 9 -39 21 -72 23 -68 31 -114 19 -114 -5 0 -10 8 -12 18 -3 9
-6 -2 -9 -26 -4 -37 -3 -41 8 -26 7 10 13 14 13 8 0 -5 4 -2 10 6 8 13 9 13
14 0 12 -39 19 -77 18 -100 -1 -21 -1 -22 6 -6 7 17 11 14 24 -20 15 -36 14
-79 -1 -55 -4 6 -7 -6 -7 -27 0 -36 0 -36 10 -9 5 15 13 27 18 27 7 0 16 -28
18 -60 0 -8 3 -39 6 -68 5 -46 -2 -96 -23 -166 -3 -12 -1 -16 6 -12 6 4 11 2
11 -4 0 -38 -71 -113 -97 -103 -10 4 -14 2 -10 -4 4 -6 -9 -18 -28 -28 -41
-19 -61 -21 -90 -10 -19 7 -19 7 -1 -7 22 -17 28 -15 -119 -48 -49 -11 -106
-25 -124 -30 -40 -11 -55 -5 -21 8 l24 9 -22 5 c-12 4 -20 3 -17 -2 3 -4 -2
-11 -11 -14 -8 -3 -12 -11 -8 -17 4 -7 0 -9 -14 -5 -11 4 -23 2 -27 -4 -3 -5
-16 -10 -29 -10 -13 0 -38 -7 -56 -17 -18 -9 -45 -16 -61 -17 -15 -1 -25 -4
-23 -8 4 -5 -16 -15 -46 -23 -3 -1 -18 -7 -33 -13 -36 -15 -50 -15 -41 0 4 7
3 8 -5 4 -6 -4 -9 -11 -6 -16 10 -15 -23 -18 -44 -4 -16 11 -21 12 -21 3 0
-10 -3 -10 -12 -1 -7 7 -17 12 -22 12 -6 0 -3 -7 7 -15 11 -7 25 -11 32 -9 7
3 16 1 19 -5 4 -6 -5 -13 -21 -17 -15 -4 -44 -16 -63 -27 -83 -47 -164 -84
-184 -85 -5 0 -13 -7 -18 -16 -5 -9 -18 -16 -30 -16 -11 0 -27 -8 -35 -17 -10
-13 -16 -15 -19 -5 -3 6 -19 12 -35 12 -22 0 -29 -5 -29 -20 0 -17 7 -20 39
-20 22 0 43 5 46 10 3 6 14 10 23 9 14 0 13 -2 -3 -9 -11 -5 -15 -9 -10 -9 6
-1 4 -5 -4 -10 -16 -10 -5 -35 13 -28 7 3 19 1 27 -4 12 -7 11 -10 -4 -21 -16
-12 -15 -13 8 -14 21 -2 25 2 20 17 -5 15 -1 19 20 19 15 0 41 11 57 25 16 14
34 23 39 19 5 -3 9 0 9 6 0 7 -8 9 -20 5 -31 -10 -70 -16 -70 -11 0 11 120 39
164 38 34 0 45 2 35 9 -10 6 -10 9 -1 9 6 0 12 7 12 15 0 8 2 15 4 15 2 0 12
3 22 7 11 4 15 3 11 -4 -4 -7 2 -10 17 -9 13 0 23 3 21 6 -9 15 16 33 44 33
16 0 28 3 26 7 -10 16 365 127 388 114 7 -4 9 -3 4 1 -8 9 162 56 175 49 4 -2
9 0 13 6 3 5 15 15 27 21 15 8 19 8 14 0 -4 -6 -2 -11 3 -11 6 0 11 -5 11 -11
0 -8 -4 -8 -13 -1 -13 11 -52 -9 -40 -21 3 -4 0 -13 -7 -22 -11 -13 -9 -15 11
-14 13 0 19 3 13 5 -7 3 -10 14 -7 24 6 22 18 26 28 10 3 -5 0 -10 -7 -10 -10
0 -9 -3 2 -10 9 -6 17 -5 22 3 4 6 10 -1 14 -18 5 -19 3 -30 -4 -33 -14 -4
-16 -32 -4 -32 16 0 32 -50 26 -82 -4 -25 -3 -29 5 -18 8 12 11 8 12 -20 4
-83 -3 -207 -13 -233 -6 -15 -8 -30 -4 -34 3 -3 1 -12 -5 -20 -6 -7 -7 -13 -2
-13 5 0 7 -15 5 -34 -3 -27 -7 -33 -23 -29 -21 6 -25 -7 -7 -25 9 -9 8 -15 -6
-25 -9 -7 -16 -19 -14 -27 2 -8 -2 -14 -9 -13 -6 1 -10 -5 -8 -15 1 -9 8 -16
16 -14 10 3 10 0 0 -12 -7 -8 -20 -12 -28 -9 -12 5 -15 2 -11 -8 3 -9 -5 -25
-18 -38 -19 -18 -27 -20 -41 -11 -16 10 -16 11 5 7 12 -3 22 -1 22 4 0 15 -36
10 -50 -6 -7 -8 -10 -16 -6 -16 3 -1 10 -2 15 -3 5 0 13 -5 18 -10 4 -5 3 -6
-3 -3 -7 4 -17 0 -24 -8 -7 -8 -18 -15 -24 -15 -6 0 -2 7 8 15 19 15 19 15 -2
15 -12 0 -22 -4 -22 -10 0 -5 -5 -10 -11 -10 -5 0 -7 5 -3 11 4 7 1 10 -7 7
-8 -3 -13 -15 -11 -28 2 -14 0 -20 -7 -16 -6 4 -11 3 -11 -2 0 -11 -91 -52
-112 -51 -10 0 -10 2 0 6 19 7 14 21 -10 33 -21 10 -21 10 -5 -3 16 -13 16
-15 2 -21 -9 -3 -13 -11 -9 -18 5 -8 2 -9 -9 -5 -9 3 -19 2 -23 -4 -3 -5 -14
-7 -23 -4 -10 3 -31 -2 -48 -10 -35 -17 -70 -21 -97 -10 -15 6 -17 5 -11 -5 6
-10 2 -12 -18 -8 -15 3 -24 2 -22 -2 4 -7 -56 -19 -128 -25 -15 -2 -39 -6 -53
-9 -17 -5 -23 -3 -19 4 9 15 -14 12 -31 -5 -12 -11 -39 -14 -137 -10 -73 2
-114 0 -102 -5 20 -9 7 -15 -24 -11 -7 2 -10 -2 -6 -8 4 -7 -4 -11 -20 -11
-14 0 -37 -7 -51 -16 -21 -14 -91 -27 -201 -37 -12 -1 -25 -6 -29 -10 -5 -4 0
-5 11 -1 18 7 18 6 6 -9 -9 -12 -21 -15 -39 -10 -17 4 -23 2 -18 -5 4 -6 -3
-16 -15 -22 -24 -13 -41 -4 -19 10 8 6 11 10 7 10 -5 0 -26 -14 -47 -31 -22
-18 -47 -33 -57 -34 -52 -6 -84 -20 -99 -43 -26 -39 -66 -73 -81 -68 -7 3 -19
-4 -27 -16 -8 -11 -21 -18 -29 -15 -7 3 -19 -4 -26 -15 -10 -16 -10 -18 0 -13
8 6 10 4 5 -4 -5 -7 -15 -10 -23 -7 -9 4 -17 -1 -20 -14 -5 -19 -16 -25 -37
-21 -5 1 -5 -6 -2 -16 6 -15 4 -14 -16 3 -17 14 -20 15 -9 2 16 -21 7 -52 -13
-45 -9 4 -13 -2 -12 -16 1 -15 -5 -22 -16 -21 -10 1 -14 -4 -11 -12 5 -14 -45
-44 -64 -37 -7 3 -13 1 -13 -4 0 -4 -9 -14 -19 -20 -16 -10 -18 -9 -14 8 3 10
0 19 -6 19 -6 0 -10 -3 -10 -8 3 -19 -2 -23 -16 -12 -8 7 -21 10 -30 7 -8 -4
-17 -2 -20 3 -14 23 -26 8 -20 -23 4 -22 3 -28 -3 -18 -9 12 -13 12 -28 -3
-14 -15 -15 -19 -4 -26 11 -7 6 -13 -18 -27 -18 -10 -32 -22 -32 -26 0 -5 6
-5 13 -1 6 4 -4 -7 -23 -25 -19 -17 -52 -48 -72 -68 -21 -19 -38 -31 -38 -26
0 5 3 13 8 17 4 4 7 13 7 19 0 7 8 11 17 11 10 -1 14 4 11 12 -3 8 -9 12 -13
9 -12 -7 7 56 20 69 5 5 10 21 10 34 0 15 4 21 12 16 6 -4 8 -3 5 3 -4 6 -2
25 4 43 9 24 14 29 21 18 8 -10 9 -9 4 4 -3 9 2 31 10 47 13 26 19 29 34 21
15 -8 21 -6 30 9 13 25 13 42 -1 19 -5 -9 -16 -15 -24 -12 -11 4 -11 11 -3 29
6 14 16 21 25 18 9 -4 14 0 13 8 -4 29 1 37 25 43 14 4 25 13 25 22 0 8 4 13
8 10 4 -2 13 3 19 13 9 14 8 18 -4 18 -8 0 -21 -13 -29 -29 -8 -15 -19 -28
-24 -28 -10 0 25 55 58 93 11 12 38 42 60 67 203 231 230 259 238 253 10 -6
33 10 28 19 -4 6 1 8 12 4 25 -7 39 4 40 32 0 19 -1 20 -15 9 -34 -29 -45 -28
-17 1 16 17 33 29 38 26 5 -3 7 -2 6 3 -4 14 23 54 33 48 5 -4 8 -1 7 7 -2 7
2 12 9 11 7 -2 10 4 7 12 -4 8 -1 15 5 15 6 0 11 -4 11 -10 0 -5 10 -14 23
-20 19 -9 20 -9 6 2 -22 19 -32 49 -14 41 8 -3 12 -9 9 -14 -3 -5 2 -6 10 -3
13 5 12 9 -6 24 l-22 17 32 17 c32 16 45 33 18 23 -7 -3 2 19 22 49 19 30 39
54 45 54 6 0 8 3 4 6 -3 4 1 13 10 22 14 14 17 14 31 -4 13 -17 14 -17 8 -1
-16 48 -19 70 -7 62 8 -4 11 -2 9 6 -1 8 4 29 11 47 10 24 16 30 22 20 13 -19
11 -30 -3 -23 -7 4 -4 -1 6 -9 27 -22 33 -20 38 9 4 16 1 25 -8 25 -7 0 -16 9
-19 21 -8 23 -8 22 20 37 12 7 14 12 6 12 -11 0 -11 3 -1 15 6 8 9 18 6 23 -3
6 2 16 11 23 14 12 16 12 8 -1 -12 -20 -14 -52 -4 -70 6 -11 8 -6 9 16 0 17 7
48 15 67 20 48 19 54 -5 32 -18 -17 -30 -8 -12 9 4 4 8 17 8 29 1 12 11 63 23
114 25 110 52 268 51 304 0 27 43 93 53 82 4 -3 7 0 7 9 0 8 9 23 20 33 10 9
19 20 18 24 -2 21 4 21 22 1 11 -13 20 -18 20 -11 0 7 -7 19 -15 28 -8 8 -12
19 -9 25 8 13 34 -18 34 -39 0 -19 17 -16 40 7 l20 20 -30 0 c-35 0 -58 31
-37 52 7 7 23 38 36 68 24 57 49 93 37 53 -4 -12 -2 -24 3 -28 7 -4 9 6 6 27
-4 36 24 130 37 122 4 -3 7 5 7 18 -2 40 20 139 33 156 11 13 10 15 -4 9 -10
-3 -18 -5 -18 -3 0 3 -3 13 -6 23 -5 15 -4 15 5 3 8 -11 11 -12 11 -2 0 7 5
10 10 7 6 -3 10 1 10 10 0 10 -4 13 -12 8 -7 -4 -21 -6 -30 -5 -13 2 -18 -3
-18 -21 0 -14 -12 -45 -26 -68 -14 -24 -24 -37 -21 -28 3 9 -1 16 -9 16 -7 0
-11 -4 -8 -9 8 -13 -6 -49 -17 -43 -5 4 -9 -4 -9 -17 0 -13 -6 -32 -14 -43 -7
-11 -14 -24 -15 -30 -1 -5 -9 -9 -18 -8 -11 1 -12 -2 -4 -10 16 -16 14 -25
-10 -37 -19 -11 -20 -10 -9 12 12 22 11 22 -5 6 -16 -15 -16 -19 -4 -34 12
-15 12 -17 0 -9 -11 6 -13 4 -8 -10 4 -9 3 -23 -2 -29 -4 -6 -11 -28 -15 -48
-4 -21 -11 -38 -16 -38 -13 0 -13 33 -1 46 11 11 18 75 9 89 -3 6 -9 31 -12
57 -4 26 -16 58 -27 71 -23 30 -24 47 -4 47 8 0 15 7 15 15 0 8 -4 15 -10 15
-5 0 -10 6 -10 14 0 19 -14 28 -34 20 -11 -4 -13 -10 -7 -18 4 -6 6 -19 2 -29
-6 -16 -9 -16 -31 8 -25 27 -37 65 -20 65 6 0 10 7 10 16 0 12 -5 11 -20 -7
-16 -19 -19 -20 -13 -5 4 12 3 17 -4 13 -10 -6 -39 49 -82 161 -27 68 -18 118
20 115 55 -5 226 25 629 111 97 21 116 22 123 10 4 -8 13 -14 20 -14 7 0 6 4
-3 10 -23 14 -3 25 63 31 87 8 326 9 305 1z m-3836 -178 c4 -3 33 -8 65 -10
32 -3 69 -6 83 -8 14 -2 36 -4 48 -5 15 -1 26 -9 29 -21 6 -21 16 -24 48 -10
18 8 17 9 -8 9 -40 1 -24 19 17 19 19 0 43 3 55 7 13 4 21 2 21 -5 0 -6 5 -8
11 -4 6 3 15 0 21 -7 7 -11 8 -9 6 6 -4 25 36 34 45 11 4 -9 2 -16 -3 -16 -6
0 -10 5 -10 11 0 5 -5 7 -11 3 -8 -4 -5 -10 7 -17 11 -6 22 -15 26 -21 13 -20
19 1 8 29 -6 15 -8 30 -5 33 10 10 16 -7 22 -62 4 -40 2 -61 -8 -73 -8 -9 -9
-14 -2 -10 17 11 4 -34 -18 -59 -11 -11 -16 -24 -12 -29 5 -4 1 -6 -7 -3 -8 3
-14 14 -12 24 2 16 1 16 -7 4 -7 -9 -7 -18 -1 -24 18 -18 11 -33 -32 -75 -40
-38 -67 -54 -53 -31 3 6 1 10 -4 10 -6 0 -10 -10 -8 -22 1 -15 -4 -23 -16 -26
-11 -2 -27 -12 -38 -23 -27 -27 -119 -71 -135 -65 -8 3 -14 1 -14 -4 0 -11
-128 -40 -181 -40 -37 0 -40 2 -26 13 15 10 11 12 -28 13 -27 1 -42 -2 -39 -8
4 -6 0 -14 -7 -19 -19 -12 -32 -11 -24 2 5 7 -7 8 -39 4 -40 -6 -45 -5 -40 9
4 11 1 16 -11 16 -9 0 -13 -4 -10 -10 3 -5 -1 -10 -9 -10 -9 0 -16 6 -16 14 0
8 -5 18 -12 22 -6 4 -8 3 -4 -4 3 -6 2 -13 -3 -17 -11 -6 -96 13 -126 29 -11
5 -23 9 -26 9 -4 -1 -15 7 -24 17 -10 11 -13 20 -7 20 6 0 12 -5 14 -12 3 -8
9 -8 24 0 18 10 17 11 -11 22 -16 6 -32 16 -36 22 -6 10 240 267 284 297 14 9
35 23 48 32 13 10 35 20 49 24 19 5 21 4 10 -4 -12 -9 -11 -11 8 -11 14 0 22
6 22 17 0 21 11 11 14 -13 2 -10 9 -20 17 -22 11 -3 11 -1 -1 7 -13 10 -13 11
0 11 9 0 11 3 5 8 -26 18 -14 32 28 32 24 0 46 -3 49 -6z m2863 -304 c3 -5 1
-10 -4 -10 -6 0 -11 5 -11 10 0 6 2 10 4 10 3 0 8 -4 11 -10z m0 -29 c3 -5 2
-12 -3 -15 -5 -3 -9 1 -9 9 0 17 3 19 12 6z m540 -1011 c-27 -12 -43 -12 -25
0 8 5 22 9 30 9 10 0 8 -3 -5 -9z m-195 -80 c0 -5 -9 -14 -20 -20 -22 -12 -27
-1 -8 18 14 14 28 16 28 2z m1010 -379 c-6 -12 -15 -21 -21 -21 -5 0 -2 11 7
25 20 30 31 26 14 -4z m-1000 -347 c0 -2 -9 -4 -21 -4 -11 0 -18 4 -14 10 5 8
35 3 35 -6z m-313 -70 c-3 -3 -12 -4 -19 -1 -8 3 -5 6 6 6 11 1 17 -2 13 -5z
m-297 -109 c0 -2 -10 -9 -22 -15 -22 -11 -22 -10 -4 4 21 17 26 19 26 11z
m1265 -34 c10 -17 -12 -21 -25 -6 -10 12 -10 15 3 15 9 0 18 -4 22 -9z m-1184
-72 c-14 -5 -28 -6 -32 -2 -4 4 6 9 24 10 30 1 31 1 8 -8z m-651 -279 c-12
-12 -19 -24 -16 -28 3 -5 -4 -14 -16 -21 -11 -7 -17 -8 -14 -3 3 6 3 12 -1 15
-5 2 -2 2 5 1 11 -3 17 9 13 30 -2 11 19 26 37 26 7 0 4 -8 -8 -20z"/>
<path d="M12015 4130 c-13 -6 -15 -9 -5 -9 8 0 22 4 30 9 18 12 2 12 -25 0z"/>
<path d="M11910 4100 c-13 -8 -12 -10 3 -10 9 0 17 5 17 10 0 12 -1 12 -20 0z"/>
<path d="M12015 4100 c28 -12 37 -12 30 0 -3 6 -16 10 -28 9 -21 0 -21 -1 -2
-9z"/>
<path d="M11800 4080 c0 -13 7 -20 20 -20 11 0 20 7 20 15 0 12 7 14 28 9 15
-4 24 -4 21 0 -4 4 -25 9 -48 12 -36 4 -41 2 -41 -16z"/>
<path d="M12515 4090 c-17 -7 -16 -9 10 -10 17 -2 33 -2 38 -1 4 0 7 -3 7 -9
0 -5 5 -10 12 -10 6 0 3 9 -7 20 -20 22 -29 23 -60 10z"/>
<path d="M12600 4072 c0 -5 9 -17 20 -27 11 -10 20 -15 20 -12 0 4 -9 16 -20
27 -11 11 -20 16 -20 12z"/>
<path d="M11620 4051 c-14 -4 -24 -13 -23 -18 2 -7 -13 -10 -39 -7 -23 2 -39
1 -36 -2 13 -12 78 -11 103 2 15 8 34 14 42 14 8 0 11 5 8 10 -7 11 -19 11
-55 1z"/>
<path d="M11980 4050 c0 -5 5 -10 10 -10 6 0 10 -22 10 -50 0 -43 3 -50 20
-50 11 0 20 5 20 10 0 6 14 10 30 10 17 0 30 5 30 10 0 6 9 10 21 10 14 0 19
5 16 14 -3 8 1 17 9 20 8 3 14 10 14 16 0 6 -32 10 -80 10 -47 0 -80 4 -80 10
0 6 -4 10 -10 10 -5 0 -10 -4 -10 -10z"/>
<path d="M12425 4050 c-3 -5 3 -10 14 -10 12 0 21 5 21 10 0 6 -6 10 -14 10
-8 0 -18 -4 -21 -10z"/>
<path d="M11558 4043 c7 -3 16 -2 19 1 4 3 -2 6 -13 5 -11 0 -14 -3 -6 -6z"/>
<path d="M12595 4030 c3 -5 8 -10 11 -10 2 0 4 5 4 10 0 6 -5 10 -11 10 -5 0
-7 -4 -4 -10z"/>
<path d="M11665 4016 c-18 -13 -17 -13 8 -13 14 0 28 6 31 13 3 8 0 14 -7 14
-7 0 -22 -6 -32 -14z"/>
<path d="M12573 4008 c1 -24 5 -28 29 -26 21 2 28 7 28 23 0 14 -3 16 -9 7
-10 -16 -34 -12 -43 8 -4 9 -6 4 -5 -12z"/>
<path d="M11368 4003 c7 -3 16 -2 19 1 4 3 -2 6 -13 5 -11 0 -14 -3 -6 -6z"/>
<path d="M12545 3987 c-4 -10 -5 -21 -1 -24 10 -10 18 4 13 24 -4 17 -4 17
-12 0z"/>
<path d="M11170 3980 c0 -5 7 -10 15 -10 8 0 15 5 15 10 0 6 -7 10 -15 10 -8
0 -15 -4 -15 -10z"/>
<path d="M12521 3974 c0 -11 3 -14 6 -6 3 7 2 16 -1 19 -3 4 -6 -2 -5 -13z"/>
<path d="M11778 3973 c12 -2 32 -2 45 0 12 2 2 4 -23 4 -25 0 -35 -2 -22 -4z"/>
<path d="M12630 3951 c0 -5 5 -13 10 -16 6 -3 10 -2 10 4 0 5 -4 13 -10 16 -5
3 -10 2 -10 -4z"/>
<path d="M12648 3900 c-7 -24 -3 -38 8 -28 3 4 4 17 2 30 l-3 23 -7 -25z"/>
<path d="M11229 3823 c16 -31 28 -36 35 -16 4 10 4 14 0 10 -4 -4 -16 1 -27
10 -19 17 -20 17 -8 -4z"/>
<path d="M11327 3827 c-11 -29 -9 -43 4 -30 6 6 9 19 7 29 -3 18 -4 18 -11 1z"/>
<path d="M12540 3810 c0 -5 7 -10 15 -10 8 0 15 5 15 10 0 6 -7 10 -15 10 -8
0 -15 -4 -15 -10z"/>
<path d="M12680 3770 c0 -5 5 -10 11 -10 5 0 7 5 4 10 -3 6 -8 10 -11 10 -2 0
-4 -4 -4 -10z"/>
<path d="M11425 3657 c-8 -28 -3 -42 12 -36 5 2 6 18 2 34 l-6 30 -8 -28z"/>
<path d="M11530 3641 c0 -6 4 -13 10 -16 6 -3 7 1 4 9 -7 18 -14 21 -14 7z"/>
<path d="M11665 3630 c3 -5 8 -10 11 -10 2 0 4 5 4 10 0 6 -5 10 -11 10 -5 0
-7 -4 -4 -10z"/>
<path d="M11380 3591 c0 -5 5 -13 10 -16 6 -3 10 -2 10 4 0 5 -4 13 -10 16 -5
3 -10 2 -10 -4z"/>
<path d="M11500 3580 c0 -5 5 -10 11 -10 5 0 7 5 4 10 -3 6 -8 10 -11 10 -2 0
-4 -4 -4 -10z"/>
<path d="M12760 3576 c0 -8 5 -18 10 -21 6 -3 10 1 10 9 0 8 -4 18 -10 21 -5
3 -10 -1 -10 -9z"/>
<path d="M12740 3543 c0 -13 5 -23 10 -23 13 0 13 11 0 30 -8 12 -10 11 -10
-7z"/>
<path d="M11643 3515 c-3 -9 -3 -19 1 -22 3 -4 6 1 6 10 0 8 6 18 13 20 9 4 9
6 -1 6 -7 1 -15 -6 -19 -14z"/>
<path d="M11661 3484 c0 -11 3 -14 6 -6 3 7 2 16 -1 19 -3 4 -6 -2 -5 -13z"/>
<path d="M12825 3388 c-8 -27 -6 -63 5 -92 6 -14 7 -5 3 25 -3 27 0 55 6 68 7
11 8 21 3 21 -6 0 -13 -10 -17 -22z"/>
<path d="M11820 3370 c0 -5 5 -10 10 -10 6 0 10 5 10 10 0 6 -4 10 -10 10 -5
0 -10 -4 -10 -10z"/>
<path d="M11561 3356 c-4 -6 -15 -25 -23 -41 -14 -30 -14 -31 8 -31 14 0 20 5
17 13 -3 7 0 13 7 13 8 0 10 9 6 25 -5 19 -3 23 9 19 8 -4 15 -2 15 3 0 13
-28 12 -39 -1z"/>
<path d="M12840 3346 c0 -14 5 -26 10 -26 6 0 10 9 10 19 0 11 -4 23 -10 26
-6 4 -10 -5 -10 -19z"/>
<path d="M11600 3220 c0 -11 5 -20 10 -20 6 0 10 9 10 20 0 11 -4 20 -10 20
-5 0 -10 -9 -10 -20z"/>
<path d="M11456 3180 c-10 -10 -15 -23 -12 -28 7 -11 -28 -45 -37 -36 -10 10
-30 -43 -23 -61 3 -9 12 -15 19 -12 16 5 16 33 0 30 -14 -3 -17 9 -6 20 3 4
12 2 20 -4 10 -9 13 -6 13 12 0 19 2 21 10 9 8 -12 10 -12 16 3 3 9 12 17 19
17 7 0 15 9 18 20 3 11 1 20 -5 20 -6 0 -8 7 -4 15 7 20 -5 18 -28 -5z m20
-37 c-10 -10 -19 5 -10 18 6 11 8 11 12 0 2 -7 1 -15 -2 -18z"/>
<path d="M12805 3180 c-3 -5 -1 -10 4 -10 6 0 11 5 11 10 0 6 -2 10 -4 10 -3
0 -8 -4 -11 -10z"/>
<path d="M12823 3143 c3 -13 1 -23 -4 -23 -5 0 -9 -4 -9 -8 0 -5 6 -9 14 -9
15 0 15 42 1 55 -4 4 -5 -3 -2 -15z"/>
<path d="M11483 3103 c-18 -6 -16 -23 2 -23 8 0 14 -4 13 -9 -2 -5 0 -9 5 -10
9 -1 9 3 -1 27 -4 11 -13 17 -19 15z"/>
<path d="M12665 3030 c-3 -5 -2 -10 4 -10 5 0 13 5 16 10 3 6 2 10 -4 10 -5 0
-13 -4 -16 -10z"/>
<path d="M12692 3019 c-13 -5 -36 -6 -50 -3 l-27 6 25 -15 c21 -12 29 -12 53
0 15 7 27 16 27 18 0 6 1 6 -28 -6z"/>
<path d="M12320 3009 c0 -5 5 -7 10 -4 6 3 10 8 10 11 0 2 -4 4 -10 4 -5 0
-10 -5 -10 -11z"/>
<path d="M12571 2996 c-10 -12 -8 -13 8 -9 12 3 21 9 21 14 0 14 -16 11 -29
-5z"/>
<path d="M12463 2970 c-33 -13 -28 -20 10 -14 26 5 29 3 17 -6 -13 -10 -12
-11 3 -6 10 3 22 6 27 6 4 0 10 7 14 15 6 17 -34 20 -71 5z"/>
<path d="M12280 2921 c0 -4 11 -6 25 -3 14 2 25 6 25 8 0 2 -11 4 -25 4 -14 0
-25 -4 -25 -9z"/>
<path d="M12068 2873 c6 -2 18 -2 25 0 6 3 1 5 -13 5 -14 0 -19 -2 -12 -5z"/>
<path d="M11351 2844 c0 -11 3 -14 6 -6 3 7 2 16 -1 19 -3 4 -6 -2 -5 -13z"/>
<path d="M12005 2830 c3 -5 8 -10 11 -10 2 0 4 5 4 10 0 6 -5 10 -11 10 -5 0
-7 -4 -4 -10z"/>
<path d="M12044 2825 c-10 -8 -14 -15 -7 -15 6 0 15 5 18 11 4 6 14 8 22 5 8
-3 11 -1 8 4 -8 14 -18 13 -41 -5z"/>
<path d="M12615 2830 c3 -5 11 -10 16 -10 6 0 7 5 4 10 -3 6 -11 10 -16 10 -6
0 -7 -4 -4 -10z"/>
<path d="M12530 2820 c-9 -6 -10 -10 -3 -10 6 0 15 5 18 10 8 12 4 12 -15 0z"/>
<path d="M12580 2815 c7 -9 15 -13 17 -11 7 7 -7 26 -19 26 -6 0 -6 -6 2 -15z"/>
<path d="M11368 2813 c-3 -4 4 -16 14 -26 19 -18 20 -18 16 4 -3 23 -23 37
-30 22z"/>
<path d="M12476 2802 c-2 -4 -1 -14 4 -22 7 -11 9 -9 7 8 -1 24 -3 26 -11 14z"/>
<path d="M11331 2764 c0 -11 3 -14 6 -6 3 7 2 16 -1 19 -3 4 -6 -2 -5 -13z"/>
<path d="M12368 2773 c7 -3 16 -2 19 1 4 3 -2 6 -13 5 -11 0 -14 -3 -6 -6z"/>
<path d="M11387 2746 c-4 -10 -5 -21 -2 -24 9 -9 17 6 13 25 -3 17 -4 17 -11
-1z"/>
<path d="M12328 2753 c7 -3 16 -2 19 1 4 3 -2 6 -13 5 -11 0 -14 -3 -6 -6z"/>
<path d="M12385 2750 c-3 -5 -1 -10 4 -10 6 0 11 5 11 10 0 6 -2 10 -4 10 -3
0 -8 -4 -11 -10z"/>
<path d="M11333 2724 c-16 -16 -16 -26 -1 -59 15 -33 23 -32 25 3 1 23 0 24
-6 7 -8 -19 -8 -19 -15 3 -5 14 -3 29 5 38 15 19 8 26 -8 8z"/>
<path d="M12250 2726 c4 -4 16 -4 26 2 16 9 14 10 -8 9 -15 -1 -23 -6 -18 -11z"/>
<path d="M12325 2730 c3 -5 10 -10 16 -10 5 0 9 5 9 10 0 6 -7 10 -16 10 -8 0
-12 -4 -9 -10z"/>
<path d="M11520 2699 c0 -16 5 -20 27 -17 17 2 29 10 31 21 3 13 -3 17 -27 17
-25 0 -31 -4 -31 -21z"/>
<path d="M11688 2700 c-7 -11 -18 -20 -25 -20 -7 0 -13 -7 -13 -15 0 -22 24
-8 44 25 19 33 14 42 -6 10z"/>
<path d="M11727 2713 c-4 -3 -7 -11 -7 -17 0 -6 4 -4 10 4 5 8 13 11 17 6 4
-4 -3 -16 -16 -27 -13 -10 -19 -19 -14 -19 6 0 19 8 31 18 16 14 18 22 10 30
-14 14 -22 15 -31 5z"/>
<path d="M12710 2713 c0 -6 -3 -18 -6 -27 -4 -11 -1 -16 10 -16 9 0 16 6 16
13 0 16 -20 46 -20 30z"/>
<path d="M12113 2703 c-23 -9 -14 -23 15 -22 15 0 21 3 14 6 -6 2 -10 9 -6 14
6 10 -3 11 -23 2z"/>
<path d="M12030 2669 c0 -5 11 -9 25 -9 14 0 25 2 25 4 0 2 -11 6 -25 8 -14 3
-25 1 -25 -3z"/>
<path d="M12600 2590 c0 -23 4 -30 20 -30 16 0 20 7 20 30 0 23 -4 30 -20 30
-16 0 -20 -7 -20 -30z"/>
<path d="M11820 2590 c-9 -6 -10 -10 -3 -10 6 0 15 5 18 10 8 12 4 12 -15 0z"/>
<path d="M11888 2583 c7 -3 16 -2 19 1 4 3 -2 6 -13 5 -11 0 -14 -3 -6 -6z"/>
<path d="M11836 2572 c-2 -4 4 -8 15 -8 10 0 19 4 19 8 0 4 -6 8 -14 8 -8 0
-17 -4 -20 -8z"/>
<path d="M11345 2550 c3 -5 8 -10 11 -10 2 0 4 5 4 10 0 6 -5 10 -11 10 -5 0
-7 -4 -4 -10z"/>
<path d="M12400 2499 c0 -69 12 -99 40 -99 18 0 20 7 20 80 l0 80 -30 0 -30 0
0 -61z"/>
<path d="M12732 2530 c0 -14 2 -19 5 -12 2 6 2 18 0 25 -3 6 -5 1 -5 -13z"/>
<path d="M11587 2508 c-23 -12 -22 -28 2 -28 25 0 47 26 28 33 -7 3 -21 1 -30
-5z"/>
<path d="M11860 2450 c0 -5 5 -10 10 -10 6 0 10 5 10 10 0 6 -4 10 -10 10 -5
0 -10 -4 -10 -10z"/>
<path d="M12602 2433 c2 -17 10 -29 21 -31 13 -3 17 3 17 27 0 25 -4 31 -21
31 -16 0 -20 -5 -17 -27z"/>
<path d="M11300 2416 c0 -19 -5 -36 -11 -38 -7 -2 -10 -9 -8 -16 3 -7 13 -4
29 9 14 12 20 22 14 25 -6 3 -9 16 -6 29 2 15 0 25 -7 25 -6 0 -11 -15 -11
-34z"/>
<path d="M11640 2430 c0 -5 5 -10 10 -10 6 0 10 5 10 10 0 6 -4 10 -10 10 -5
0 -10 -4 -10 -10z"/>
<path d="M11400 2390 c0 -7 24 -20 36 -20 13 0 1 19 -16 23 -11 3 -20 2 -20
-3z"/>
<path d="M11362 2368 c3 -7 15 -15 27 -18 21 -5 21 -6 -9 -23 -17 -11 -34 -16
-38 -12 -4 4 -1 10 6 12 13 5 17 33 4 33 -4 0 -13 -10 -21 -22 -12 -19 -11
-23 3 -34 15 -10 15 -12 -4 -17 -13 -3 -20 0 -20 8 0 8 -4 16 -9 20 -6 3 -6
-6 -1 -24 7 -25 6 -29 -8 -23 -15 5 -15 4 -3 -11 12 -15 12 -17 -2 -12 -10 4
-17 0 -21 -13 -5 -13 -15 -18 -36 -17 -26 2 -28 0 -18 -18 6 -12 6 -17 0 -13
-5 3 -12 -3 -15 -14 -3 -11 -12 -20 -21 -20 -9 0 -16 -7 -16 -16 0 -10 -6 -14
-14 -11 -11 5 -14 -1 -11 -22 3 -24 0 -28 -16 -24 -12 3 -18 11 -15 19 3 8 0
11 -8 8 -8 -3 -13 -17 -13 -31 0 -14 3 -20 7 -14 3 7 14 9 24 5 13 -5 14 -10
5 -20 -16 -20 -6 -38 24 -39 14 -1 24 2 21 6 -6 11 16 53 23 45 3 -3 0 -12 -6
-20 -7 -8 -8 -17 -3 -20 6 -3 12 2 16 12 11 33 41 75 51 71 6 -2 9 -7 8 -11
-5 -14 5 -9 31 16 15 13 26 31 26 40 0 9 7 16 16 16 11 0 13 6 9 19 -3 11 0
23 6 27 8 5 9 3 4 -7 -8 -12 -6 -12 9 0 11 9 13 17 6 21 -6 4 2 17 20 33 16
15 30 32 30 39 0 6 7 19 16 29 19 21 11 39 -16 39 -10 0 -22 5 -25 10 -9 14
-27 12 -23 -2z"/>
<path d="M12010 2370 c0 -6 -35 -10 -85 -10 -69 0 -85 -3 -85 -15 0 -11 14
-15 58 -17 39 -1 46 -3 23 -5 -50 -6 -21 -19 33 -15 34 3 46 8 46 20 0 12 3
13 12 4 7 -7 17 -8 29 -2 10 6 20 6 23 1 6 -9 96 8 96 18 0 3 -18 12 -41 19
-30 9 -45 10 -54 2 -9 -8 -15 -8 -20 0 -8 13 -35 13 -35 0z"/>
<path d="M11440 2360 c0 -5 5 -10 10 -10 6 0 10 5 10 10 0 6 -4 10 -10 10 -5
0 -10 -4 -10 -10z"/>
<path d="M11511 2284 c0 -11 3 -14 6 -6 3 7 2 16 -1 19 -3 4 -6 -2 -5 -13z"/>
<path d="M11157 2276 c-5 -12 -3 -15 5 -10 8 5 9 1 4 -12 -5 -14 -4 -16 4 -7
8 7 9 17 3 28 -9 16 -10 16 -16 1z"/>
<path d="M11425 2261 c-3 -5 -1 -12 5 -16 5 -3 10 1 10 9 0 18 -6 21 -15 7z"/>
<path d="M11480 2250 c0 -5 5 -10 10 -10 6 0 10 5 10 10 0 6 -4 10 -10 10 -5
0 -10 -4 -10 -10z"/>
<path d="M11123 2235 c-9 -10 -8 -14 8 -18 12 -3 19 0 19 8 0 20 -13 25 -27
10z"/>
<path d="M12662 2220 c0 -14 2 -19 5 -12 2 6 2 18 0 25 -3 6 -5 1 -5 -13z"/>
<path d="M11097 2192 c4 -10 2 -13 -5 -8 -8 5 -10 2 -5 -9 4 -12 8 -13 13 -5
4 6 11 11 16 11 17 -2 9 22 -8 25 -11 1 -15 -3 -11 -14z"/>
<path d="M11340 2145 c0 -8 5 -15 10 -15 6 0 10 7 10 15 0 8 -4 15 -10 15 -5
0 -10 -7 -10 -15z"/>
<path d="M11715 2070 c-3 -5 -41 -10 -84 -10 -73 0 -79 -2 -85 -22 -9 -35 -8
-38 14 -38 11 0 20 -4 20 -10 0 -5 5 -10 10 -10 6 0 10 7 10 16 0 12 7 14 30
9 19 -4 30 -3 30 4 0 6 5 11 10 11 6 0 10 -9 10 -20 0 -11 5 -20 10 -20 6 0
10 5 10 10 0 6 7 10 16 10 20 0 44 24 44 44 0 9 5 16 10 16 6 0 10 5 10 10 0
6 -13 10 -29 10 -17 0 -33 -4 -36 -10z"/>
<path d="M11072 2018 c2 -6 10 -14 16 -16 7 -2 10 2 6 12 -7 18 -28 22 -22 4z"/>
<path d="M11035 1970 c-3 -5 -1 -10 4 -10 6 0 11 5 11 10 0 6 -2 10 -4 10 -3
0 -8 -4 -11 -10z"/>
<path d="M11170 1969 c0 -5 5 -7 10 -4 6 3 10 8 10 11 0 2 -4 4 -10 4 -5 0
-10 -5 -10 -11z"/>
<path d="M12395 1970 c4 -6 11 -8 16 -5 14 9 11 15 -7 15 -8 0 -12 -5 -9 -10z"/>
<path d="M12310 1959 c0 -5 5 -7 10 -4 6 3 10 8 10 11 0 2 -4 4 -10 4 -5 0
-10 -5 -10 -11z"/>
<path d="M11128 1923 c7 -3 16 -2 19 1 4 3 -2 6 -13 5 -11 0 -14 -3 -6 -6z"/>
<path d="M12155 1910 c3 -5 12 -7 20 -3 21 7 19 13 -6 13 -11 0 -18 -4 -14
-10z"/>
<path d="M11933 1903 c20 -2 35 -8 32 -14 -4 -5 3 -9 15 -9 19 0 20 2 6 15 -8
9 -30 14 -53 13 l-38 -1 38 -4z"/>
<path d="M11893 1883 c9 -2 23 -2 30 0 6 3 -1 5 -18 5 -16 0 -22 -2 -12 -5z"/>
<path d="M10850 1871 c0 -5 5 -13 10 -16 6 -3 10 -2 10 4 0 5 -4 13 -10 16 -5
3 -10 2 -10 -4z"/>
<path d="M10820 1866 c0 -2 8 -10 18 -17 15 -13 16 -12 3 4 -13 16 -21 21 -21
13z"/>
<path d="M10786 1841 c-11 -12 -14 -21 -7 -26 6 -3 12 -4 12 -1 1 3 2 9 3 14
1 4 5 13 9 20 12 18 2 15 -17 -7z"/>
<path d="M11510 1820 c-11 -8 -7 -9 15 -4 37 8 45 14 19 14 -10 0 -26 -5 -34
-10z"/>
<path d="M10767 1800 c16 -17 53 -23 53 -9 0 6 -8 9 -17 7 -10 -1 -25 1 -33 6
-12 7 -13 6 -3 -4z"/>
<path d="M10703 1744 c3 -6 2 -16 -4 -24 -6 -11 -9 -12 -9 -2 0 7 -5 10 -10 7
-8 -5 -7 -12 2 -23 10 -12 10 -14 0 -8 -7 4 -15 0 -19 -11 -3 -10 -12 -22 -20
-26 -7 -4 -13 -17 -13 -28 0 -18 2 -19 15 -5 8 8 15 19 15 25 0 6 11 18 25 27
14 9 23 19 21 22 -3 2 -1 13 4 23 7 12 6 20 -2 25 -6 4 -8 3 -5 -2z"/>
<path d="M10604 1639 c-3 -6 -2 -15 3 -20 5 -5 9 -1 9 11 0 23 -2 24 -12 9z"/>
<path d="M10693 1633 c-24 -16 -30 -33 -12 -33 14 0 41 28 37 39 -2 5 -13 2
-25 -6z"/>
<path d="M10755 1591 c6 -11 71 -8 82 3 3 3 -15 6 -41 6 -27 0 -45 -4 -41 -9z"/>
<path d="M10945 1582 c-13 -9 -17 -32 -6 -32 13 0 33 28 24 33 -5 3 -13 3 -18
-1z"/>
<path d="M10780 1511 c0 -18 25 -30 40 -19 12 8 12 9 -2 4 -12 -3 -18 0 -18 9
0 8 -4 15 -10 15 -5 0 -10 -4 -10 -9z"/>
<path d="M10570 1489 c0 -5 -4 -8 -9 -4 -6 3 -15 -4 -21 -15 -9 -17 -8 -21 2
-18 7 1 24 -4 36 -11 13 -7 26 -10 30 -7 3 3 1 6 -5 6 -5 0 -8 14 -5 30 3 23
0 30 -12 30 -9 0 -16 -5 -16 -11z"/>
<path d="M10525 1420 c3 -5 8 -10 11 -10 2 0 4 5 4 10 0 6 -5 10 -11 10 -5 0
-7 -4 -4 -10z"/>
<path d="M10480 1388 c0 -25 3 -29 10 -18 13 20 13 50 0 50 -5 0 -10 -15 -10
-32z"/>
<path d="M10735 1400 c3 -5 8 -10 11 -10 2 0 4 5 4 10 0 6 -5 10 -11 10 -5 0
-7 -4 -4 -10z"/>
<path d="M10653 1345 c0 -8 3 -13 5 -10 3 3 12 -1 21 -7 10 -8 9 -4 -3 10 -23
26 -23 26 -23 7z"/>
<path d="M10460 1329 c0 -5 5 -7 10 -4 6 3 10 8 10 11 0 2 -4 4 -10 4 -5 0
-10 -5 -10 -11z"/>
<path d="M10520 1310 c0 -5 5 -10 10 -10 6 0 10 5 10 10 0 6 -4 10 -10 10 -5
0 -10 -4 -10 -10z"/>
<path d="M10648 1313 c7 -3 16 -2 19 1 4 3 -2 6 -13 5 -11 0 -14 -3 -6 -6z"/>
<path d="M10375 1219 c-4 -6 -5 -12 -2 -15 2 -3 7 2 10 11 7 17 1 20 -8 4z"/>
<path d="M10325 1120 c3 -5 8 -10 11 -10 2 0 4 5 4 10 0 6 -5 10 -11 10 -5 0
-7 -4 -4 -10z"/>
<path d="M8483 3943 c9 -2 25 -2 35 0 9 3 1 5 -18 5 -19 0 -27 -2 -17 -5z"/>
<path d="M8620 3940 c-23 -7 -23 -8 -3 -9 12 -1 25 4 28 9 3 6 5 10 3 9 -2 -1
-14 -5 -28 -9z"/>
<path d="M8675 3920 c3 -5 13 -10 21 -10 8 0 12 5 9 10 -3 6 -13 10 -21 10 -8
0 -12 -4 -9 -10z"/>
<path d="M8800 3889 c0 -5 5 -7 10 -4 6 3 10 8 10 11 0 2 -4 4 -10 4 -5 0 -10
-5 -10 -11z"/>
<path d="M8230 3865 c-7 -8 -16 -12 -21 -9 -5 3 -9 1 -9 -4 0 -5 -15 -24 -32
-42 -24 -23 -27 -29 -11 -21 12 6 29 21 37 32 8 12 19 18 25 15 5 -4 15 3 21
15 14 25 8 35 -10 14z"/>
<path d="M8275 3870 c-3 -5 -2 -10 4 -10 5 0 13 5 16 10 3 6 2 10 -4 10 -5 0
-13 -4 -16 -10z"/>
<path d="M8945 3870 c-3 -5 -1 -10 4 -10 6 0 11 5 11 10 0 6 -2 10 -4 10 -3 0
-8 -4 -11 -10z"/>
<path d="M8320 3850 c0 -5 5 -10 11 -10 5 0 7 5 4 10 -3 6 -8 10 -11 10 -2 0
-4 -4 -4 -10z"/>
<path d="M8818 3843 c-24 -6 -23 -18 2 -20 11 -1 20 4 20 13 0 8 -1 13 -2 13
-2 -1 -11 -3 -20 -6z"/>
<path d="M8206 3799 c-11 -11 -15 -19 -9 -19 12 0 38 28 32 34 -2 2 -13 -5
-23 -15z"/>
<path d="M8073 3713 c-29 -31 -53 -61 -53 -67 0 -6 7 -3 14 7 7 9 16 17 20 17
3 0 6 -8 6 -17 0 -15 2 -16 10 -3 6 9 5 19 -3 29 -10 12 -8 14 11 9 13 -4 20
-2 16 4 -4 6 2 7 17 3 22 -7 22 -7 6 10 -14 13 -15 20 -6 31 14 18 23 18 16 1
-3 -7 2 -22 10 -32 13 -19 14 -18 7 9 -5 23 -4 27 7 22 8 -4 6 -1 -3 7 -10 8
-15 17 -11 20 3 4 2 7 -2 7 -5 0 -33 -25 -62 -57z"/>
<path d="M8813 3763 c-18 -6 -16 -23 1 -23 17 0 30 16 19 23 -5 2 -14 2 -20 0z"/>
<path d="M8680 3689 c0 -5 5 -7 10 -4 6 3 10 8 10 11 0 2 -4 4 -10 4 -5 0 -10
-5 -10 -11z"/>
<path d="M8630 3649 c0 -5 5 -7 10 -4 6 3 10 8 10 11 0 2 -4 4 -10 4 -5 0 -10
-5 -10 -11z"/>
<path d="M7976 3624 c-4 -9 -2 -22 4 -28 7 -7 10 -6 10 2 0 6 8 9 18 6 13 -5
14 -4 3 4 -7 5 -17 15 -21 22 -5 8 -9 7 -14 -6z"/>
<path d="M8160 3605 c0 -43 23 -47 52 -10 17 22 21 23 34 11 8 -8 14 -22 14
-30 0 -9 5 -16 10 -16 6 0 10 9 10 19 0 12 8 21 23 24 19 4 18 4 -6 6 -15 0
-30 8 -33 16 -4 11 -21 15 -55 15 l-49 0 0 -35z"/>
<path d="M8030 3621 c0 -5 7 -11 14 -14 10 -4 13 -1 9 9 -6 15 -23 19 -23 5z"/>
<path d="M8675 3560 c-16 -7 -17 -9 -3 -9 9 -1 20 4 23 9 7 11 7 11 -20 0z"/>
<path d="M8318 3513 c7 -3 16 -2 19 1 4 3 -2 6 -13 5 -11 0 -14 -3 -6 -6z"/>
<path d="M8535 3510 c3 -5 10 -10 16 -10 5 0 9 5 9 10 0 6 -7 10 -16 10 -8 0
-12 -4 -9 -10z"/>
<path d="M8265 3500 c-4 -6 3 -10 14 -10 25 0 27 6 6 13 -8 4 -17 2 -20 -3z"/>
<path d="M8438 3503 c7 -3 16 -2 19 1 4 3 -2 6 -13 5 -11 0 -14 -3 -6 -6z"/>
<path d="M12372 11724 c-29 -7 -67 -21 -84 -30 -58 -30 -124 -102 -153 -167
-25 -54 -28 -74 -28 -154 1 -146 44 -263 159 -436 74 -111 208 -252 299 -316
296 -206 401 -250 600 -251 203 0 346 74 417 218 31 63 33 73 32 172 0 82 -5
119 -23 170 -71 204 -219 406 -399 546 -252 195 -613 304 -820 248z m176 -121
c-10 -2 -26 -2 -35 0 -10 3 -2 5 17 5 19 0 27 -2 18 -5z m179 -29 c-3 -3 -12
-4 -19 -1 -8 3 -5 6 6 6 11 1 17 -2 13 -5z"/>
<path d="M8639 6914 c-15 -3 -35 -14 -44 -24 -16 -17 -15 -19 8 -35 69 -45
128 -58 278 -63 121 -3 163 -1 249 17 58 12 109 26 114 31 28 28 -213 71 -419
75 -88 2 -172 1 -186 -1z m234 -50 c89 -7 122 -24 45 -24 -24 0 -60 -5 -81
-11 -31 -8 -48 -6 -100 12 -96 33 -101 41 -22 34 39 -3 109 -8 158 -11z"/>
<path d="M8700 6066 c-271 -122 -380 -155 -510 -156 -88 0 -160 20 -254 71
-42 22 -80 39 -83 35 -21 -21 85 -106 170 -136 156 -55 379 -20 631 99 120 56
285 170 246 171 -8 0 -98 -38 -200 -84z"/>
<path d="M7754 3609 c3 -41 15 -104 26 -140 29 -93 27 -100 -36 -154 -49 -42
-149 -153 -279 -311 -101 -122 -108 -134 -113 -189 -7 -83 22 -129 169 -275
110 -109 129 -133 149 -185 44 -121 37 -186 -44 -410 -31 -83 -36 -109 -32
-154 6 -68 41 -122 103 -157 27 -15 50 -29 52 -31 2 -1 -23 -37 -55 -79 -122
-159 -271 -365 -534 -739 -73 -104 -146 -208 -162 -230 -56 -77 -371 -525
-382 -543 -5 -9 10 -12 67 -12 58 0 76 3 81 16 4 10 2 13 -7 8 -6 -4 -1 6 13
22 31 36 42 44 51 38 4 -2 10 0 14 5 3 6 -4 8 -15 6 -23 -4 -25 -7 43 66 9 10
14 19 11 19 -4 0 -1 7 6 15 7 8 17 12 23 8 6 -3 7 -1 3 6 -7 11 18 51 64 98
14 15 18 22 10 18 -8 -5 0 11 18 35 27 37 38 45 65 45 30 0 32 2 30 35 -2 30
-1 32 7 12 12 -29 15 -28 17 11 2 20 -1 27 -6 19 -4 -8 -12 -14 -17 -13 -5 0
-8 -14 -7 -31 1 -30 -12 -28 -19 3 -4 21 81 142 97 136 17 -7 39 9 30 22 -5 9
-11 9 -23 -1 -15 -11 -6 3 27 42 2 3 1 -3 -2 -12 -4 -10 -2 -18 3 -18 6 0 10
11 10 25 0 32 28 77 43 68 6 -4 8 0 4 11 -4 10 -3 15 3 11 6 -3 10 -1 10 5 0
19 46 80 55 72 5 -4 5 -2 1 5 -8 14 38 89 60 97 8 3 14 10 14 16 0 17 70 123
77 116 3 -3 0 -12 -7 -21 -10 -12 -10 -15 3 -15 18 0 46 40 40 58 -3 6 -9 9
-15 6 -6 -4 -5 -10 3 -15 10 -6 10 -9 2 -9 -21 0 -24 18 -6 32 10 7 19 19 21
26 6 29 35 62 56 62 15 0 17 3 7 9 -11 7 -10 13 4 35 10 14 24 26 31 26 8 0
14 5 14 11 0 5 -6 7 -12 3 -8 -4 -10 -3 -5 2 5 5 14 9 20 9 5 0 11 11 12 24 1
13 15 36 32 51 16 15 33 35 36 44 6 15 10 16 22 6 15 -12 16 -11 19 22 1 7 12
23 25 36 19 19 26 21 32 10 6 -9 9 -9 9 -1 0 6 -4 15 -10 18 -5 3 -10 16 -10
28 l0 21 -15 -21 c-8 -12 -12 -30 -9 -40 4 -13 3 -14 -3 -5 -15 20 -36 -11
-27 -40 6 -20 5 -21 -10 -9 -15 12 -14 16 5 48 12 19 32 56 45 82 l23 49 48
-10 c26 -5 55 -11 63 -13 8 -2 36 -7 63 -11 26 -3 47 -11 47 -15 0 -5 -12 -7
-27 -4 -16 3 -21 2 -13 -2 8 -3 20 -13 26 -21 9 -13 13 -12 26 7 9 12 19 18
22 13 3 -5 17 -9 31 -9 26 0 208 -89 260 -127 17 -12 42 -27 58 -34 15 -6 27
-16 27 -22 0 -6 6 -8 13 -4 6 4 9 4 5 -1 -11 -12 11 -35 28 -28 25 9 107 -57
91 -74 -3 -2 -15 8 -28 22 -24 25 -39 32 -39 18 0 -13 68 -53 88 -53 10 0 22
-3 28 -8 5 -4 -1 3 -14 15 -13 13 -19 23 -15 23 12 0 96 -59 105 -73 5 -8 13
-6 27 7 21 19 29 42 11 31 -5 -3 -18 3 -30 15 -11 11 -17 20 -12 21 4 0 -3 4
-15 9 -13 5 -23 14 -23 20 0 6 4 9 9 5 5 -3 13 0 17 6 6 10 -45 69 -60 69 -6
0 -2 -23 7 -37 5 -8 4 -13 -2 -13 -6 0 -11 5 -11 10 0 6 -5 10 -12 10 -23 0
-57 50 -52 76 2 13 0 24 -6 24 -6 0 -8 6 -4 13 6 9 4 9 -8 -1 -11 -9 -18 -10
-23 -2 -3 5 -11 10 -16 10 -6 0 -8 -4 -4 -9 3 -5 1 -12 -5 -16 -9 -6 -11 1
-14 47 -1 9 -4 20 -8 24 -5 4 -6 -7 -4 -24 3 -27 1 -30 -10 -21 -8 6 -14 19
-14 28 0 13 -2 13 -9 2 -7 -11 -10 -10 -18 4 -5 9 -14 17 -19 17 -18 1 -34 10
-29 18 5 9 -64 43 -107 54 -16 3 -28 11 -28 16 0 6 -7 10 -15 10 -8 0 -15 5
-15 11 0 6 -8 8 -19 4 -14 -4 -21 0 -26 14 -4 13 -15 19 -38 20 -57 1 -70 3
-207 31 -75 15 -146 32 -158 39 -23 12 -30 31 -10 31 15 0 1 13 -17 16 -9 1
-12 -4 -8 -14 4 -12 3 -14 -4 -7 -16 16 -33 76 -26 89 4 6 6 19 5 29 -2 9 2
17 8 17 6 0 10 -6 9 -12 -4 -32 2 -48 18 -48 13 0 14 3 5 12 -7 7 -12 22 -12
35 0 13 -5 23 -10 23 -6 0 -3 11 6 25 8 13 13 29 9 35 -4 6 4 10 19 10 29 0
31 3 40 53 5 29 4 37 -7 37 -12 0 -13 7 -4 43 5 23 11 52 11 65 1 25 16 31 16
5 0 -9 3 -14 6 -10 4 3 3 14 -2 24 -10 23 -11 83 -1 76 15 -9 6 10 -10 23 -10
7 -15 16 -11 20 4 4 14 2 21 -4 8 -7 16 -9 20 -6 3 3 29 -10 59 -30 29 -20 46
-36 37 -36 -8 0 -21 6 -28 13 -11 10 -13 9 -9 -3 3 -8 14 -16 26 -18 12 -2 22
-10 22 -17 0 -24 22 -29 38 -9 14 18 14 18 9 -3 -3 -16 -1 -23 9 -23 8 0 14 4
14 9 0 5 9 7 20 4 l21 -6 -20 34 c-11 19 -43 56 -70 83 -28 27 -47 54 -44 59
3 6 2 7 -4 4 -14 -9 -85 72 -76 86 5 8 8 8 11 -1 2 -7 8 -9 14 -6 5 3 0 13
-12 21 -15 11 -18 18 -10 28 8 10 3 12 -24 11 -19 0 -37 -4 -40 -8 -3 -5 -3
-6 1 -3 3 3 13 -1 21 -8 13 -9 14 -9 8 1 -4 7 -2 12 6 12 8 0 14 -11 14 -25 0
-29 -8 -31 -30 -9 -9 8 -16 12 -16 8 0 -5 -18 10 -40 31 -37 36 -39 41 -23 52
9 7 12 13 7 13 -6 0 -15 -5 -22 -12 -10 -10 -27 2 -79 52 -76 74 -84 82 -77
89 3 3 9 -1 14 -9 6 -8 10 -10 10 -4 0 5 9 20 20 32 12 12 17 22 12 22 -5 0
-15 -7 -22 -15 -11 -14 -15 -13 -34 7 -12 12 -21 29 -22 38 -1 8 -4 26 -9 39
-5 15 -4 21 3 17 7 -4 8 4 1 26 -11 40 -11 40 -1 35 4 -3 14 2 22 11 13 14 12
15 -5 8 -11 -5 -25 -9 -32 -9 -6 0 -9 -6 -6 -14 4 -9 0 -11 -12 -7 -14 6 -10
13 22 47 21 22 43 47 50 54 15 17 21 16 27 -4 4 -14 4 -14 3 2 -1 11 2 26 7
34 7 10 5 12 -3 6 -10 -5 -10 -3 0 13 15 24 30 23 60 -4 l22 -19 -12 23 c-6
12 -16 22 -21 22 -6 0 -10 7 -10 15 0 13 4 14 22 4 18 -10 20 -9 15 6 -4 9 -7
19 -7 21 0 3 -4 2 -10 -1 -16 -10 -11 1 7 16 9 8 14 9 10 3 -4 -7 1 -18 10
-25 15 -13 16 -11 10 18 -5 26 -1 37 28 67 39 42 53 47 29 11 -9 -14 -21 -22
-27 -18 -5 3 -7 1 -4 -5 7 -11 32 -11 43 1 12 11 14 57 3 57 -6 0 -7 5 -4 10
4 6 11 8 16 5 5 -4 6 2 2 12 -6 16 -5 16 10 4 9 -7 14 -17 11 -22 -6 -10 9
-12 19 -2 4 3 0 14 -9 24 -16 18 -11 44 7 33 6 -3 9 0 8 7 -1 8 3 25 9 39 11
23 11 22 7 -12 -3 -20 0 -40 5 -43 6 -3 10 -1 10 4 0 6 4 11 9 11 9 0 37 -60
33 -73 -1 -4 3 -6 9 -5 6 2 14 -3 17 -11 3 -8 0 -11 -7 -7 -7 5 -9 1 -4 -9 3
-10 8 -12 12 -7 3 6 25 -7 48 -29 23 -21 37 -39 31 -39 -15 0 -1 -13 17 -16
25 -4 76 -45 69 -56 -4 -7 -10 -4 -16 6 -5 9 -14 16 -20 16 -6 0 -17 8 -24 18
-12 16 -13 15 -14 -5 0 -13 5 -23 11 -23 5 0 7 -5 3 -12 -5 -8 -2 -9 11 -5 9
4 24 2 31 -4 11 -9 18 -8 31 2 11 10 14 10 9 2 -4 -8 -1 -13 8 -13 28 0 31 -1
48 -17 10 -9 15 -20 12 -24 -3 -5 4 -9 15 -9 12 0 21 -4 21 -8 0 -15 85 -31
121 -23 34 8 153 -9 167 -24 4 -3 -48 -5 -116 -3 -67 2 -122 7 -122 11 0 5 -5
5 -12 1 -7 -4 -8 -3 -4 4 4 7 2 12 -4 12 -6 0 -13 -6 -16 -14 -7 -19 -87 -19
-176 0 -40 8 -82 15 -93 15 -11 0 -30 7 -43 15 -13 9 -26 13 -30 10 -3 -3 -2
-6 3 -6 4 0 2 -7 -5 -15 -10 -12 -9 -15 6 -16 11 0 14 -3 6 -6 -9 -3 -7 -12 8
-33 11 -15 20 -32 20 -38 0 -5 6 -14 13 -20 7 -6 12 -26 12 -45 -1 -22 3 -34
12 -34 15 0 17 13 3 22 -5 3 -10 11 -10 16 0 6 18 -6 40 -27 22 -21 38 -44 36
-51 -3 -7 -1 -15 5 -18 5 -4 7 -11 4 -16 -9 -13 9 -11 23 3 9 9 12 9 12 0 0
-6 6 -9 13 -6 8 3 20 -2 27 -11 7 -8 20 -15 29 -15 21 -1 122 -36 117 -41 -2
-2 46 -6 108 -7 108 -4 210 8 269 30 47 18 41 2 -8 -22 -25 -12 -44 -24 -42
-26 2 -3 20 3 38 12 65 33 69 34 69 24 0 -6 -7 -13 -15 -16 -8 -4 -12 -10 -9
-15 3 -5 0 -9 -5 -9 -6 0 -11 5 -11 12 0 6 -3 8 -6 5 -4 -4 -1 -13 5 -21 10
-12 10 -20 0 -38 -8 -13 -14 -25 -14 -28 -1 -3 -5 -16 -9 -29 -7 -21 -10 -22
-18 -8 -11 21 -28 22 -28 1 0 -8 4 -13 9 -10 15 10 20 -33 5 -45 -16 -13 -19
-33 -4 -24 6 3 10 5 10 3 -1 -2 -7 -25 -15 -53 -10 -35 -14 -43 -15 -25 -2 21
-3 19 -10 -10 -6 -23 -5 -37 2 -41 8 -5 9 -50 5 -144 -5 -115 -4 -141 10 -161
8 -13 13 -33 10 -45 -3 -11 2 -34 11 -51 13 -24 14 -32 4 -35 -9 -4 -8 -13 7
-37 11 -18 27 -58 35 -91 9 -32 18 -60 21 -63 3 -3 0 -11 -6 -19 -9 -10 -8
-18 6 -33 10 -11 13 -20 7 -20 -7 0 -11 -15 -10 -37 1 -37 1 -37 5 -5 2 17 8
32 14 32 5 0 9 8 9 18 0 18 52 -85 53 -105 0 -7 7 -15 15 -18 10 -3 12 -13 8
-30 -5 -18 -2 -25 9 -25 11 0 15 -10 15 -35 0 -43 -35 -204 -55 -252 -8 -19
-13 -38 -10 -42 2 -5 -9 -57 -25 -117 -17 -60 -32 -117 -34 -126 -19 -74 -40
-145 -46 -153 -4 -5 -13 -32 -20 -59 -11 -39 -15 -45 -21 -30 -4 10 -8 13 -8
6 -1 -7 3 -21 9 -31 9 -18 0 -60 -21 -103 -5 -10 -9 -31 -9 -47 0 -36 -9 -63
-20 -56 -4 2 -5 -11 -3 -30 2 -26 0 -35 -11 -35 -9 0 -13 -7 -9 -22 4 -19 3
-20 -6 -8 -9 13 -11 13 -11 -2 0 -9 5 -20 10 -23 6 -4 8 -11 4 -16 -3 -6 -8
-25 -11 -42 -3 -18 -10 -54 -17 -81 -11 -44 -14 -47 -24 -30 -6 10 -12 14 -12
7 0 -6 -2 -18 -5 -26 -5 -11 7 -14 57 -16 l64 -2 51 183 c188 666 242 894 246
1041 2 63 8 80 22 57 3 -5 11 -10 16 -10 5 0 -2 20 -16 44 -32 55 -107 275
-144 425 -73 292 -76 470 -12 659 40 115 84 185 172 272 94 93 160 140 262
184 43 18 79 38 80 42 3 15 -55 17 -113 4 -80 -17 -189 -72 -267 -135 -95 -76
-156 -90 -403 -90 -170 0 -190 2 -242 23 -86 34 -289 172 -254 172 4 0 23 -7
44 -16 151 -65 424 -71 635 -12 130 35 272 96 313 134 l39 35 -40 -6 c-119
-20 -170 -25 -270 -25 -267 0 -429 47 -592 173 -95 73 -158 175 -307 497 l-17
35 5 -76z m-257 -798 c-3 -14 -1 -35 3 -46 5 -12 4 -28 -1 -36 -8 -11 -13 -10
-29 10 -31 37 -23 69 9 39 11 -11 12 -9 4 7 -6 11 -8 27 -5 35 4 12 3 13 -10
3 -12 -10 -15 -10 -15 2 0 9 9 14 24 13 20 -2 24 -7 20 -27z m33 -122 c0 -5
-4 -9 -10 -9 -5 0 -10 5 -10 11 0 5 -5 7 -12 3 -7 -4 -8 -3 -4 4 7 12 36 5 36
-9z m510 -19 c0 -5 -2 -10 -4 -10 -3 0 -8 5 -11 10 -3 6 -1 10 4 10 6 0 11 -4
11 -10z m678 -42 c-5 -16 -48 -24 -48 -10 0 11 17 20 38 21 8 1 12 -5 10 -11z
m-960 -286 c19 -15 21 -20 10 -29 -10 -9 -17 -5 -30 18 -19 33 -13 36 20 11z
m202 -165 c0 -5 -4 -5 -10 -2 -5 3 -10 14 -10 23 0 15 2 15 10 2 5 -8 10 -19
10 -23z m-190 -177 c0 -11 -7 -20 -15 -20 -13 0 -14 4 -5 20 6 11 13 20 15 20
3 0 5 -9 5 -20z m744 -592 c-5 -9 -2 -9 9 1 9 7 17 12 18 10 6 -32 5 -39 -5
-39 -14 0 -36 20 -36 32 0 4 5 8 11 8 5 0 7 -6 3 -12z"/>
<path d="M7791 3244 c-2 -18 33 -44 47 -35 10 6 10 10 -2 20 -8 7 -19 10 -25
7 -5 -3 -12 0 -14 6 -3 8 -6 8 -6 2z"/>
<path d="M7920 3136 c0 -2 8 -10 18 -17 15 -13 16 -12 3 4 -13 16 -21 21 -21
13z"/>
<path d="M7953 3086 c-9 -11 -9 -15 0 -19 7 -3 14 3 14 14 2 22 2 22 -14 5z"/>
<path d="M7920 3060 c0 -5 5 -10 11 -10 5 0 7 5 4 10 -3 6 -8 10 -11 10 -2 0
-4 -4 -4 -10z"/>
<path d="M7840 3010 c0 -5 9 -10 20 -10 11 0 20 5 20 10 0 6 -9 10 -20 10 -11
0 -20 -4 -20 -10z"/>
<path d="M8000 2981 c0 -5 7 -12 16 -15 14 -5 15 -4 4 9 -14 17 -20 19 -20 6z"/>
<path d="M8046 2976 c10 -8 21 -12 24 -10 5 6 -21 24 -34 24 -6 0 -1 -6 10
-14z"/>
<path d="M7840 2965 c0 -8 5 -15 10 -15 6 0 10 7 10 15 0 8 -4 15 -10 15 -5 0
-10 -7 -10 -15z"/>
<path d="M7898 2973 c7 -3 16 -2 19 1 4 3 -2 6 -13 5 -11 0 -14 -3 -6 -6z"/>
<path d="M7665 2960 c-3 -5 -1 -10 4 -10 6 0 11 5 11 10 0 6 -2 10 -4 10 -3 0
-8 -4 -11 -10z"/>
<path d="M7906 2952 c-3 -4 4 -9 15 -9 23 -2 25 3 4 10 -8 4 -16 3 -19 -1z"/>
<path d="M7995 2950 c3 -5 16 -10 28 -9 21 0 21 1 2 9 -28 12 -37 12 -30 0z"/>
<path d="M7975 2930 c10 -11 28 -19 39 -19 20 2 20 2 -1 6 -13 2 -23 8 -23 13
0 4 -8 11 -17 14 -15 6 -15 4 2 -14z"/>
<path d="M7625 2920 c3 -5 8 -10 11 -10 2 0 4 5 4 10 0 6 -5 10 -11 10 -5 0
-7 -4 -4 -10z"/>
<path d="M8048 2923 c7 -3 16 -2 19 1 4 3 -2 6 -13 5 -11 0 -14 -3 -6 -6z"/>
<path d="M8160 2900 c0 -5 7 -7 15 -4 8 4 15 8 15 10 0 2 -7 4 -15 4 -8 0 -15
-4 -15 -10z"/>
<path d="M7506 2891 c-4 -5 3 -7 14 -4 23 6 26 13 6 13 -8 0 -17 -4 -20 -9z"/>
<path d="M7588 2883 c7 -3 16 -2 19 1 4 3 -2 6 -13 5 -11 0 -14 -3 -6 -6z"/>
<path d="M7840 2830 c0 -5 7 -10 16 -10 8 0 12 5 9 10 -3 6 -10 10 -16 10 -5
0 -9 -4 -9 -10z"/>
<path d="M7840 2764 c0 -8 5 -12 10 -9 6 3 10 10 10 16 0 5 -4 9 -10 9 -5 0
-10 -7 -10 -16z"/>
<path d="M7627 2714 c-6 -6 16 -34 27 -34 3 0 6 9 6 20 0 19 -20 27 -33 14z"/>
<path d="M7636 2629 c4 -8 -1 -9 -17 -5 -20 6 -21 5 -6 -4 10 -7 23 -8 33 -2
15 8 15 10 0 15 -11 4 -15 3 -10 -4z"/>
<path d="M8000 2610 c0 -5 5 -10 11 -10 5 0 7 5 4 10 -3 6 -8 10 -11 10 -2 0
-4 -4 -4 -10z"/>
<path d="M7627 2581 c9 -9 25 -17 34 -17 14 -1 16 3 9 16 -5 10 -21 18 -34 18
-23 0 -24 -2 -9 -17z m33 -1 c0 -5 -2 -10 -4 -10 -3 0 -8 5 -11 10 -3 6 -1 10
4 10 6 0 11 -4 11 -10z"/>
<path d="M8030 2590 c0 -5 9 -10 21 -10 11 0 17 5 14 10 -3 6 -13 10 -21 10
-8 0 -14 -4 -14 -10z"/>
<path d="M8000 2564 c0 -8 5 -12 10 -9 6 4 8 11 5 16 -9 14 -15 11 -15 -7z"/>
<path d="M7730 2546 c7 -7 13 -7 20 0 6 6 3 10 -10 10 -13 0 -16 -4 -10 -10z"/>
<path d="M8365 2550 c3 -5 19 -10 35 -10 16 0 32 5 35 10 4 6 -10 10 -35 10
-25 0 -39 -4 -35 -10z"/>
<path d="M8458 2543 c-32 -8 -19 -19 27 -21 24 -1 47 3 50 8 3 6 -3 10 -14 10
-10 0 -25 2 -33 4 -7 2 -21 2 -30 -1z"/>
<path d="M7740 2516 c0 -2 7 -7 16 -10 8 -3 12 -2 9 4 -6 10 -25 14 -25 6z"/>
<path d="M8597 2491 c-4 -17 -3 -21 5 -13 5 5 8 16 6 23 -3 8 -7 3 -11 -10z"/>
<path d="M8260 2419 c0 -13 -5 -19 -13 -16 -9 3 -12 -4 -9 -29 4 -29 6 -32 23
-21 15 9 23 9 39 -1 18 -11 20 -10 20 13 0 18 8 29 28 37 l27 12 -27 4 c-16 2
-28 8 -28 13 0 5 -13 9 -30 9 -24 0 -30 -4 -30 -21z m60 -9 c0 -5 -4 -10 -10
-10 -5 0 -10 5 -10 10 0 6 5 10 10 10 6 0 10 -4 10 -10z"/>
<path d="M7906 2398 c5 -8 -2 -9 -27 -5 l-34 6 28 -15 c29 -16 37 -30 11 -20
-9 3 -12 2 -9 -5 4 -6 13 -8 20 -5 7 2 18 -1 24 -7 6 -6 14 -7 18 -3 5 4 0 13
-10 21 -10 7 -15 19 -11 29 3 9 1 16 -6 16 -6 0 -8 -5 -4 -12z"/>
<path d="M7965 2305 c17 -13 18 -17 5 -25 -12 -7 -11 -9 5 -8 13 1 21 9 21 19
0 10 -2 16 -4 14 -3 -2 -14 0 -26 6 -21 10 -21 10 -1 -6z"/>
<path d="M8021 2217 c17 -32 19 -33 19 -10 0 12 -7 23 -15 27 -13 5 -14 2 -4
-17z"/>
<path d="M7850 2216 c0 -16 17 -31 48 -40 13 -5 22 -3 22 3 0 6 -7 11 -15 11
-8 0 -24 9 -35 20 -14 14 -20 16 -20 6z"/>
<path d="M8062 2200 c0 -14 2 -19 5 -12 2 6 2 18 0 25 -3 6 -5 1 -5 -13z"/>
<path d="M7840 2176 c0 -2 7 -7 16 -10 8 -3 12 -2 9 4 -6 10 -25 14 -25 6z"/>
<path d="M7811 2115 c-1 -29 14 -51 24 -35 4 7 3 15 -2 19 -6 3 -13 13 -16 21
-4 11 -6 9 -6 -5z"/>
<path d="M7780 2093 c0 -4 5 -15 10 -23 8 -13 10 -13 10 2 0 9 -4 20 -10 23
-5 3 -10 3 -10 -2z"/>
<path d="M7808 2014 c-5 -4 -8 -21 -8 -38 0 -21 3 -27 11 -19 6 6 9 23 7 38
-2 15 -6 23 -10 19z"/>
<path d="M7740 1875 c-7 -9 -10 -18 -7 -21 3 -3 10 4 17 15 13 25 8 27 -10 6z"/>
<path d="M7970 1740 c-8 -5 -10 -10 -5 -10 6 0 17 5 25 10 8 5 11 10 5 10 -5
0 -17 -5 -25 -10z"/>
<path d="M7803 1733 c9 -2 23 -2 30 0 6 3 -1 5 -18 5 -16 0 -22 -2 -12 -5z"/>
<path d="M8481 1724 c0 -11 3 -14 6 -6 3 7 2 16 -1 19 -3 4 -6 -2 -5 -13z"/>
<path d="M11948 1723 c7 -3 16 -2 19 1 4 3 -2 6 -13 5 -11 0 -14 -3 -6 -6z"/>
<path d="M11996 1721 c-3 -4 6 -6 19 -3 14 2 25 6 25 8 0 8 -39 4 -44 -5z"/>
<path d="M7787 1709 c7 -7 15 -10 18 -7 3 3 -2 9 -12 12 -14 6 -15 5 -6 -5z"/>
<path d="M7826 1705 c4 -8 8 -15 10 -15 2 0 4 7 4 15 0 8 -4 15 -10 15 -5 0
-7 -7 -4 -15z"/>
<path d="M11825 1710 c-18 -9 -18 -9 5 -8 14 1 34 0 45 -1 l20 -2 -20 -9 c-14
-6 1 -9 48 -9 37 -1 67 3 67 8 0 14 -34 23 -55 15 -14 -6 -16 -4 -10 7 7 12 6
12 -7 1 -11 -9 -23 -10 -42 -2 -15 5 -28 10 -29 9 -1 0 -11 -4 -22 -9z"/>
<path d="M11828 1683 c7 -3 16 -2 19 1 4 3 -2 6 -13 5 -11 0 -14 -3 -6 -6z"/>
<path d="M8030 1670 c8 -5 20 -10 25 -10 6 0 3 5 -5 10 -8 5 -19 10 -25 10 -5
0 -3 -5 5 -10z"/>
<path d="M12020 1669 c0 -5 5 -7 10 -4 6 3 10 8 10 11 0 2 -4 4 -10 4 -5 0
-10 -5 -10 -11z"/>
<path d="M11555 1660 c-3 -5 1 -10 9 -10 8 0 18 5 21 10 3 6 -1 10 -9 10 -8 0
-18 -4 -21 -10z"/>
<path d="M12325 1660 c-3 -5 -1 -10 4 -10 6 0 11 5 11 10 0 6 -2 10 -4 10 -3
0 -8 -4 -11 -10z"/>
<path d="M8612 1625 c0 -16 2 -22 5 -12 2 9 2 23 0 30 -3 6 -5 -1 -5 -18z"/>
<path d="M11928 1643 c7 -3 16 -2 19 1 4 3 -2 6 -13 5 -11 0 -14 -3 -6 -6z"/>
<path d="M8545 1627 c-8 -19 -2 -31 13 -26 5 2 6 13 2 24 -7 19 -8 19 -15 2z"/>
<path d="M11514 1614 c7 -8 17 -9 29 -3 24 13 22 16 -12 16 -22 0 -26 -3 -17
-13z"/>
<path d="M11460 1610 c0 -5 4 -10 9 -10 6 0 13 5 16 10 3 6 -1 10 -9 10 -9 0
-16 -4 -16 -10z"/>
<path d="M11965 1610 c3 -5 13 -10 21 -10 8 0 14 5 14 10 0 6 -9 10 -21 10
-11 0 -17 -4 -14 -10z"/>
<path d="M8470 1600 c-9 -6 -10 -10 -3 -10 6 0 15 5 18 10 8 12 4 12 -15 0z"/>
<path d="M8263 1585 c0 -9 4 -14 9 -13 5 2 10 8 10 13 0 5 -5 11 -10 13 -5 1
-9 -4 -9 -13z"/>
<path d="M8300 1570 c-9 -6 -10 -10 -3 -10 6 0 15 5 18 10 8 12 4 12 -15 0z"/>
<path d="M8358 1563 c7 -3 16 -2 19 1 4 3 -2 6 -13 5 -11 0 -14 -3 -6 -6z"/>
<path d="M7834 1545 c-5 -12 -10 -13 -20 -4 -10 8 -12 6 -9 -11 8 -42 17 -60
26 -55 5 4 5 14 -1 26 -9 16 -7 21 12 29 13 5 17 9 8 10 -13 0 -13 1 0 10 10
7 11 10 2 10 -7 0 -15 -7 -18 -15z"/>
<path d="M11270 1552 c0 -6 -8 -13 -17 -15 -16 -4 -16 -5 -1 -6 18 -1 34 16
24 26 -3 4 -6 1 -6 -5z"/>
<path d="M12320 1545 c0 -9 6 -12 15 -9 8 4 15 10 15 15 0 5 -7 9 -15 9 -8 0
-15 -7 -15 -15z"/>
<path d="M8390 1530 c-13 -9 -13 -11 -1 -19 17 -11 43 -3 38 12 -5 15 -20 18
-37 7z"/>
<path d="M12100 1525 c0 -8 5 -15 10 -15 6 0 10 7 10 15 0 8 -4 15 -10 15 -5
0 -10 -7 -10 -15z"/>
<path d="M12140 1530 c0 -5 5 -10 10 -10 6 0 10 5 10 10 0 6 -4 10 -10 10 -5
0 -10 -4 -10 -10z"/>
<path d="M11079 1504 l-24 -12 28 -8 c18 -4 24 -9 17 -14 -8 -5 -8 -9 3 -13
15 -6 18 15 4 29 -13 14 -7 26 7 15 8 -7 17 -8 20 -3 10 16 -29 20 -55 6z"/>
<path d="M8435 1500 c-3 -5 -2 -10 4 -10 5 0 13 5 16 10 3 6 2 10 -4 10 -5 0
-13 -4 -16 -10z"/>
<path d="M8690 1496 c0 -8 4 -17 9 -20 5 -4 7 3 4 14 -6 23 -13 26 -13 6z"/>
<path d="M11163 1503 c-16 -6 -17 -23 -2 -23 6 0 17 7 25 15 16 16 4 20 -23 8z"/>
<path d="M7872 1480 c7 -11 16 -20 20 -20 4 0 6 9 5 20 -1 12 -8 20 -19 20
-16 0 -16 -3 -6 -20z"/>
<path d="M8116 1488 c5 -7 0 -9 -13 -6 -16 4 -20 1 -19 -16 1 -16 8 -21 34
-22 18 -1 35 3 39 9 4 6 1 7 -7 2 -7 -4 -16 -2 -21 6 -4 8 -4 16 2 20 7 4 4 9
-6 12 -10 5 -14 3 -9 -5z m-1 -28 c-3 -5 -10 -10 -16 -10 -5 0 -9 5 -9 10 0 6
7 10 16 10 8 0 12 -4 9 -10z"/>
<path d="M8666 1465 c-9 -26 -7 -32 5 -12 6 10 9 21 6 23 -2 3 -7 -2 -11 -11z"/>
<path d="M11026 1471 c-3 -5 6 -8 19 -8 14 0 25 3 25 8 0 5 -9 9 -19 9 -11 0
-22 -4 -25 -9z"/>
<path d="M8170 1461 c0 -10 19 -25 25 -20 1 2 -3 10 -11 17 -8 7 -14 8 -14 3z"/>
<path d="M7989 1453 c-1 -5 -2 -12 -4 -18 -1 -5 -3 -16 -3 -22 -3 -22 -75 -16
-92 7 -17 24 -50 26 -50 4 0 -24 37 -53 60 -47 11 3 20 0 20 -6 0 -6 17 -11
40 -11 l40 0 0 50 c0 28 -2 50 -5 50 -3 0 -6 -3 -6 -7z"/>
<path d="M12015 1450 c3 -5 15 -10 26 -10 10 0 19 5 19 10 0 6 -12 10 -26 10
-14 0 -23 -4 -19 -10z"/>
<path d="M10946 1432 c-2 -4 -1 -14 4 -22 7 -11 9 -9 7 8 -1 24 -3 26 -11 14z"/>
<path d="M12422 1420 c0 -14 2 -19 5 -12 2 6 2 18 0 25 -3 6 -5 1 -5 -13z"/>
<path d="M11538 1423 c12 -2 32 -2 45 0 12 2 2 4 -23 4 -25 0 -35 -2 -22 -4z"/>
<path d="M12320 1415 c0 -8 7 -15 15 -15 9 0 12 6 9 15 -4 8 -10 15 -15 15 -5
0 -9 -7 -9 -15z"/>
<path d="M8727 1400 c3 -14 6 -30 6 -37 0 -7 5 -10 10 -6 5 3 6 -4 3 -18 -6
-21 -5 -22 4 -6 8 13 9 22 1 31 -6 8 -8 22 -4 31 4 12 3 16 -4 12 -6 -4 -14
-1 -17 5 -3 7 -3 2 1 -12z"/>
<path d="M8258 1397 c14 -6 26 -7 32 -1 5 5 -4 9 -23 10 -30 1 -30 1 -9 -9z"/>
<path d="M11563 1403 c9 -2 23 -2 30 0 6 3 -1 5 -18 5 -16 0 -22 -2 -12 -5z"/>
<path d="M12447 1383 c-4 -3 -7 -11 -7 -17 0 -6 5 -5 12 2 6 6 9 14 7 17 -3 3
-9 2 -12 -2z"/>
<path d="M8585 1361 c-3 -6 5 -15 17 -22 22 -12 22 -11 8 6 -8 10 -10 16 -5
13 6 -4 17 -3 25 3 11 6 8 9 -12 9 -15 0 -29 -4 -33 -9z"/>
<path d="M10830 1340 c0 -5 -7 -10 -17 -10 -9 0 -14 -3 -10 -6 9 -9 68 7 61
17 -7 12 -34 12 -34 -1z"/>
<path d="M7670 1313 c-13 -15 -12 -16 4 -10 10 4 22 7 27 7 5 0 9 5 9 10 0 15
-23 11 -40 -7z"/>
<path d="M8400 1316 c0 -2 7 -7 16 -10 8 -3 12 -2 9 4 -6 10 -25 14 -25 6z"/>
<path d="M8761 1304 c0 -11 3 -14 6 -6 3 7 2 16 -1 19 -3 4 -6 -2 -5 -13z"/>
<path d="M10840 1298 c0 -19 2 -20 10 -8 13 19 13 30 0 30 -5 0 -10 -10 -10
-22z"/>
<path d="M7740 1290 c0 -5 5 -10 10 -10 6 0 10 5 10 10 0 6 -4 10 -10 10 -5 0
-10 -4 -10 -10z"/>
<path d="M10780 1288 c0 -11 12 -10 30 2 12 7 10 9 -8 7 -12 0 -22 -5 -22 -9z"/>
<path d="M8724 1277 c3 -10 6 -23 6 -28 0 -5 7 -9 15 -9 20 0 19 7 -6 33 -18
18 -21 19 -15 4z"/>
<path d="M12486 1273 c-6 -14 -5 -15 5 -6 7 7 10 15 7 18 -3 3 -9 -2 -12 -12z"/>
<path d="M7660 1269 c0 -5 5 -7 10 -4 6 3 10 8 10 11 0 2 -4 4 -10 4 -5 0 -10
-5 -10 -11z"/>
<path d="M10800 1242 c0 -6 -7 -18 -16 -26 -8 -9 -11 -16 -5 -16 13 0 35 39
27 48 -3 3 -6 0 -6 -6z"/>
<path d="M12487 1231 c-4 -17 -3 -21 5 -13 5 5 8 16 6 23 -3 8 -7 3 -11 -10z"/>
<path d="M7636 1224 c-6 -15 -4 -15 11 -3 10 7 20 15 22 16 2 2 -3 3 -11 3 -9
0 -19 -7 -22 -16z"/>
<path d="M11898 1233 c7 -3 16 -2 19 1 4 3 -2 6 -13 5 -11 0 -14 -3 -6 -6z"/>
<path d="M8490 1220 c0 -5 5 -10 10 -10 6 0 10 5 10 10 0 6 -4 10 -10 10 -5 0
-10 -4 -10 -10z"/>
<path d="M11966 1223 c-4 -4 -23 -8 -42 -10 -20 -1 -41 -7 -48 -12 -7 -6 -15
-9 -18 -6 -3 3 -11 -3 -19 -12 -13 -17 -12 -17 6 -4 11 8 -4 -9 -33 -37 -41
-39 -61 -52 -89 -54 -22 -2 -38 -9 -40 -18 -4 -12 -3 -12 5 -1 18 26 23 -8 6
-44 -18 -38 -12 -70 11 -61 18 6 18 8 4 -114 -12 -102 -18 -550 -8 -550 3 0 9
-29 13 -65 5 -52 3 -69 -9 -81 -8 -9 -14 -23 -14 -32 1 -15 2 -15 6 1 2 9 11
17 19 17 8 0 12 -5 9 -10 -4 -6 -2 -16 3 -23 5 -7 13 -33 16 -59 l7 -48 65 0
c57 0 64 2 64 19 0 11 -4 23 -10 26 -6 3 -10 -4 -10 -16 0 -12 -3 -20 -6 -17
-3 3 -9 82 -14 174 -6 93 -14 223 -20 289 -40 456 -42 502 -24 509 11 4 13 13
9 27 -6 19 -4 21 14 16 18 -4 20 -3 10 9 -12 15 -7 18 25 14 12 -1 16 2 11 10
-5 8 -3 11 6 8 8 -3 13 -10 12 -15 -1 -5 6 -9 16 -9 10 0 18 6 18 12 0 7 -6
10 -14 7 -7 -3 -16 2 -19 11 -3 9 -11 13 -18 9 -6 -3 -7 -2 -3 3 5 5 14 9 20
9 7 0 12 6 12 13 0 8 8 20 19 27 10 8 19 25 20 38 0 14 5 23 9 20 5 -3 6 -14
4 -25 -4 -15 -3 -17 8 -8 10 8 16 7 24 -7 6 -10 11 -13 11 -6 0 6 -5 15 -10
18 -7 4 -6 13 1 27 11 20 -1 45 -15 31z m-228 -160 c-12 -15 -22 -18 -14 -4 4
5 0 11 -6 14 -7 3 -3 4 9 4 17 -1 19 -4 11 -14z m47 -52 c3 -5 2 -12 -3 -15
-5 -3 -9 1 -9 9 0 17 3 19 12 6z"/>
<path d="M8530 1206 c0 -2 7 -6 15 -10 8 -3 15 -1 15 4 0 6 -7 10 -15 10 -8 0
-15 -2 -15 -4z"/>
<path d="M7610 1190 c0 -5 4 -10 9 -10 6 0 13 5 16 10 3 6 -1 10 -9 10 -9 0
-16 -4 -16 -10z"/>
<path d="M7975 1189 c-4 -6 -5 -12 -2 -15 2 -3 7 2 10 11 7 17 1 20 -8 4z"/>
<path d="M11779 1163 c-13 -14 -18 -23 -11 -19 6 4 12 4 12 1 0 -9 -28 -36
-35 -35 -4 1 -9 0 -11 -2 -2 -3 3 -5 11 -5 8 0 29 16 47 36 18 19 25 29 16 22
-20 -15 -25 -2 -6 17 7 7 10 12 7 12 -3 0 -16 -12 -30 -27z"/>
<path d="M12490 1180 c-12 -8 -10 -10 8 -10 13 0 20 4 17 10 -7 12 -6 12 -25
0z"/>
<path d="M8650 1160 c6 -11 16 -20 23 -19 9 0 9 2 0 6 -7 2 -13 11 -13 19 0 8
-5 14 -10 14 -7 0 -7 -6 0 -20z"/>
<path d="M7931 1138 c0 -13 8 -43 18 -67 22 -54 11 -121 -20 -121 -15 0 -17
-6 -12 -34 4 -28 2 -35 -16 -41 -22 -7 -28 -21 -12 -27 15 -5 -25 -114 -40
-110 -9 2 -10 0 -2 -10 10 -12 -14 -103 -43 -166 -8 -18 -11 -28 -13 -52 -1
-13 -2 -13 -11 0 -7 11 -8 6 -4 -17 5 -25 3 -34 -11 -39 -10 -4 -12 -9 -6 -13
7 -5 6 -21 -4 -51 -11 -37 -14 -40 -14 -17 -1 15 -5 27 -11 27 -5 0 -10 10
-10 22 0 16 -3 19 -11 11 -7 -7 -9 -23 -5 -39 6 -23 9 -25 17 -13 8 10 9 7 5
-13 -3 -15 -1 -28 5 -30 7 -2 7 -11 0 -28 -10 -25 -10 -25 -10 -2 -1 13 -5 21
-10 17 -5 -3 -6 -17 -2 -33 8 -29 -5 -96 -17 -88 -4 2 -8 -15 -8 -38 -1 -44
-19 -90 -33 -82 -4 3 -8 -15 -10 -40 l-2 -45 66 2 c48 2 65 6 65 16 0 8 -4 11
-10 8 -16 -10 -12 22 5 38 8 8 12 17 9 19 -2 3 6 33 20 68 14 39 26 58 30 49
3 -8 4 -5 1 7 -3 11 2 38 12 60 9 21 18 47 19 57 1 10 12 29 24 42 18 20 20
25 8 25 -14 0 -12 13 12 87 19 57 34 89 46 93 12 4 14 9 6 14 -12 7 -5 37 12
48 6 4 14 2 19 -5 6 -8 7 -6 3 6 -3 10 -6 23 -6 28 0 5 -4 9 -10 9 -5 0 -10
-8 -10 -17 0 -9 -3 -14 -6 -11 -3 3 0 25 7 49 12 40 14 41 21 18 5 -16 6 -12
2 13 -5 36 13 118 25 116 19 -2 31 4 31 15 0 7 20 19 44 26 43 12 62 33 50 53
-3 5 -13 7 -21 4 -8 -3 -11 -1 -8 4 3 6 2 10 -3 10 -5 0 -7 11 -5 24 3 13 -3
35 -12 49 -10 17 -13 27 -6 32 6 3 11 12 11 18 0 7 -7 4 -14 -5 -18 -24 -31
-22 -50 7 -20 30 -20 35 -1 35 8 0 15 5 15 10 0 14 -13 13 -28 -2 -9 -9 -18
-6 -40 15 -34 33 -42 34 -41 5z m104 -229 c-4 -6 -1 -10 6 -8 25 3 39 -1 39
-11 0 -5 -16 -9 -35 -7 -19 1 -35 3 -35 4 0 11 14 33 22 33 5 0 6 -5 3 -11z
m-5 -49 c0 -5 -7 -10 -16 -10 -8 0 -12 5 -9 10 3 6 10 10 16 10 5 0 9 -4 9
-10z"/>
<path d="M7570 1136 c0 -9 -4 -14 -10 -11 -5 3 -10 1 -10 -4 0 -6 5 -11 10
-11 13 0 25 28 16 37 -3 4 -6 -1 -6 -11z"/>
<path d="M10866 1141 c-4 -7 -5 -15 -2 -18 9 -9 19 4 14 18 -4 11 -6 11 -12 0z"/>
<path d="M7630 1130 c0 -5 7 -10 16 -10 8 0 12 5 9 10 -3 6 -10 10 -16 10 -5
0 -9 -4 -9 -10z"/>
<path d="M7855 1130 c-3 -5 -1 -10 4 -10 6 0 11 5 11 10 0 6 -2 10 -4 10 -3 0
-8 -4 -11 -10z"/>
<path d="M11940 1130 c-13 -8 -13 -10 2 -10 9 0 20 5 23 10 8 13 -5 13 -25 0z"/>
<path d="M8060 1110 c0 -5 5 -10 11 -10 5 0 7 5 4 10 -3 6 -8 10 -11 10 -2 0
-4 -4 -4 -10z"/>
<path d="M12581 1094 c0 -11 3 -14 6 -6 3 7 2 16 -1 19 -3 4 -6 -2 -5 -13z"/>
<path d="M12586 1053 c-6 -14 -5 -15 5 -6 7 7 10 15 7 18 -3 3 -9 -2 -12 -12z"/>
<path d="M8641 1024 c0 -11 3 -14 6 -6 3 7 2 16 -1 19 -3 4 -6 -2 -5 -13z"/>
<path d="M12644 1007 c1 -21 8 -43 14 -49 13 -13 11 3 -7 57 -10 30 -10 30 -7
-8z"/>
<path d="M7926 1003 c-6 -14 -5 -15 5 -6 7 7 10 15 7 18 -3 3 -9 -2 -12 -12z"/>
<path d="M8685 1011 c-3 -5 -1 -12 5 -16 5 -3 10 1 10 9 0 18 -6 21 -15 7z"/>
<path d="M7450 988 c0 -10 -4 -18 -9 -18 -5 0 -12 -8 -15 -17 -6 -16 -6 -16
12 0 23 21 33 22 26 2 -4 -8 -1 -15 4 -15 18 0 24 19 13 37 -6 10 -11 14 -11
8 0 -5 -5 -3 -10 5 -8 13 -10 12 -10 -2z"/>
<path d="M11804 978 c-4 -6 -3 -8 4 -4 7 4 10 -4 8 -26 -2 -18 -1 -24 1 -13 3
11 9 25 14 31 6 8 4 14 -5 17 -9 4 -18 1 -22 -5z"/>
<path d="M8110 964 c0 -2 9 -8 20 -14 11 -6 20 -7 20 -2 0 6 -9 12 -20 15 -11
3 -20 3 -20 1z"/>
<path d="M12680 934 c0 -8 5 -12 10 -9 6 4 8 11 5 16 -9 14 -15 11 -15 -7z"/>
<path d="M11687 914 c-2 -15 -1 -38 3 -53 7 -21 8 -16 9 27 1 56 -4 67 -12 26z"/>
<path d="M12645 930 c3 -5 8 -10 11 -10 2 0 4 5 4 10 0 6 -5 10 -11 10 -5 0
-7 -4 -4 -10z"/>
<path d="M7420 916 c15 -15 12 -26 -4 -20 -8 3 -16 1 -20 -4 -3 -5 5 -8 17 -7
24 2 34 42 10 42 -9 0 -10 -4 -3 -11z"/>
<path d="M7862 909 c2 -6 8 -10 13 -10 5 0 11 4 13 10 2 6 -4 11 -13 11 -9 0
-15 -5 -13 -11z"/>
<path d="M8140 894 c0 -8 5 -12 10 -9 6 3 10 10 10 16 0 5 -4 9 -10 9 -5 0
-10 -7 -10 -16z"/>
<path d="M12680 900 c0 -5 5 -10 11 -10 5 0 7 5 4 10 -3 6 -8 10 -11 10 -2 0
-4 -4 -4 -10z"/>
<path d="M11812 875 c-15 -33 -15 -48 -1 -39 9 5 10 -1 5 -20 -3 -14 -2 -26 3
-26 7 0 12 110 5 110 0 0 -6 -11 -12 -25z"/>
<path d="M7847 873 c-11 -10 -8 -53 3 -53 6 0 10 14 10 30 0 31 -2 35 -13 23z"/>
<path d="M8643 852 c0 -12 5 -22 9 -22 11 0 10 12 -2 30 -7 12 -9 10 -7 -8z"/>
<path d="M8072 851 c-11 -7 -10 -10 3 -15 23 -9 25 -8 25 9 0 17 -9 19 -28 6z"/>
<path d="M7345 840 c-9 -15 4 -30 20 -23 8 3 15 9 15 13 0 12 -29 20 -35 10z"/>
<path d="M8146 841 c-4 -7 -5 -15 -2 -18 9 -9 19 4 14 18 -4 11 -6 11 -12 0z"/>
<path d="M8010 809 c0 -5 5 -7 10 -4 6 3 10 8 10 11 0 2 -4 4 -10 4 -5 0 -10
-5 -10 -11z"/>
<path d="M8040 810 c0 -5 5 -10 10 -10 6 0 10 5 10 10 0 6 -4 10 -10 10 -5 0
-10 -4 -10 -10z"/>
<path d="M11680 810 c0 -5 5 -10 10 -10 6 0 10 5 10 10 0 6 -4 10 -10 10 -5 0
-10 -4 -10 -10z"/>
<path d="M7846 802 c-3 -5 1 -9 9 -9 8 0 12 4 9 9 -3 4 -7 8 -9 8 -2 0 -6 -4
-9 -8z"/>
<path d="M7341 783 c-9 -15 -12 -15 -19 -5 -7 11 -11 10 -17 -5 -5 -10 -7 -24
-6 -32 1 -8 -2 -10 -10 -5 -8 4 -10 3 -5 -4 10 -17 38 -2 31 16 -5 13 -2 12
14 -2 19 -17 19 -17 14 5 -4 15 -2 20 5 15 7 -4 10 1 9 14 -2 24 -3 25 -16 3z"/>
<path d="M11497 743 c-4 -32 -1 -104 5 -160 9 -78 9 -108 0 -128 -18 -39 -16
-135 3 -135 13 0 15 33 15 240 0 229 -10 307 -23 183z"/>
<path d="M11606 783 c-4 -9 -2 -21 4 -27 7 -7 10 -2 10 17 0 31 -5 34 -14 10z"/>
<path d="M11812 740 c0 -14 2 -19 5 -12 2 6 2 18 0 25 -3 6 -5 1 -5 -13z"/>
<path d="M11600 680 c0 -22 5 -40 10 -40 6 0 10 18 10 40 0 22 -4 40 -10 40
-5 0 -10 -18 -10 -40z"/>
<path d="M12815 690 c-3 -5 -1 -10 4 -10 6 0 11 5 11 10 0 6 -2 10 -4 10 -3 0
-8 -4 -11 -10z"/>
<path d="M7230 675 c-20 -24 1 -37 25 -17 11 9 18 16 16 15 -2 -2 -10 2 -16 7
-9 7 -16 5 -25 -5z m12 -17 c-7 -7 -12 -8 -12 -2 0 14 12 26 19 19 2 -3 -1
-11 -7 -17z"/>
<path d="M8486 661 c-4 -7 -5 -15 -2 -18 9 -9 19 4 14 18 -4 11 -6 11 -12 0z"/>
<path d="M7771 594 c0 -11 3 -14 6 -6 3 7 2 16 -1 19 -3 4 -6 -2 -5 -13z"/>
<path d="M7981 574 c0 -11 3 -14 6 -6 3 7 2 16 -1 19 -3 4 -6 -2 -5 -13z"/>
<path d="M11671 574 c0 -11 3 -14 6 -6 3 7 2 16 -1 19 -3 4 -6 -2 -5 -13z"/>
<path d="M12800 570 c0 -5 5 -10 10 -10 6 0 10 5 10 10 0 6 -4 10 -10 10 -5 0
-10 -4 -10 -10z"/>
<path d="M7142 549 c-16 -25 -16 -24 18 -27 34 -3 38 7 12 29 -17 15 -20 15
-30 -2z"/>
<path d="M12825 540 c-18 -20 -18 -21 4 -41 23 -21 44 -18 23 3 -16 16 -15 45
1 51 7 3 7 6 1 6 -6 1 -19 -8 -29 -19z"/>
<path d="M12877 543 c-4 -3 -7 -13 -7 -22 1 -13 3 -13 11 2 11 19 8 33 -4 20z"/>
<path d="M8491 475 c-7 -25 -11 -49 -7 -52 3 -4 7 -1 7 5 1 7 3 17 4 22 1 6 3
15 4 20 0 6 8 10 17 10 9 0 14 7 12 17 -6 33 -24 22 -37 -22z"/>
<path d="M8546 501 c-4 -7 -5 -15 -2 -18 9 -9 19 4 14 18 -4 11 -6 11 -12 0z"/>
<path d="M7150 492 c0 -4 9 -8 20 -9 11 -1 18 2 15 8 -7 11 -35 12 -35 1z"/>
<path d="M12880 490 c0 -5 5 -10 11 -10 5 0 7 5 4 10 -3 6 -8 10 -11 10 -2 0
-4 -4 -4 -10z"/>
<path d="M8360 470 c0 -5 5 -10 10 -10 6 0 10 -9 10 -19 0 -10 6 -21 14 -24 9
-4 12 -14 9 -26 -4 -16 1 -21 29 -25 37 -7 78 -5 77 4 0 3 -4 14 -9 25 l-9 20
0 -20 c-1 -17 -4 -16 -22 10 -11 17 -24 40 -29 53 -10 23 -40 31 -40 10 0 -9
-3 -9 -12 0 -15 15 -28 16 -28 2z"/>
<path d="M8531 445 c-20 -51 -21 -55 -11 -55 6 0 10 9 10 19 0 11 5 21 11 23
6 2 9 13 7 23 -4 17 -7 16 -17 -10z"/>
<path d="M7906 413 c-6 -14 -5 -15 5 -6 7 7 10 15 7 18 -3 3 -9 -2 -12 -12z"/>
<path d="M11681 414 c0 -11 3 -14 6 -6 3 7 2 16 -1 19 -3 4 -6 -2 -5 -13z"/>
<path d="M12968 423 c-5 -26 -2 -61 4 -57 11 7 10 -4 -3 -29 -9 -18 -9 -20 1
-10 16 14 21 75 7 66 -6 -4 -8 2 -5 15 4 12 4 22 2 22 -2 0 -5 -3 -6 -7z"/>
<path d="M7031 358 c-7 -14 -10 -16 -6 -5 3 12 1 17 -7 15 -6 -2 -13 -13 -14
-25 -3 -17 1 -19 21 -15 14 2 25 8 25 12 0 5 3 15 6 24 9 25 -11 19 -25 -6z"/>
<path d="M7980 340 c0 -11 5 -20 10 -20 6 0 10 9 10 20 0 11 -4 20 -10 20 -5
0 -10 -9 -10 -20z"/>
<path d="M7882 321 c0 -17 4 -31 9 -31 11 0 12 30 0 48 -5 9 -8 3 -9 -17z"/>
<path d="M7857 263 c-4 -3 -7 -11 -7 -17 0 -6 5 -5 12 2 6 6 9 14 7 17 -3 3
-9 2 -12 -2z"/>
<path d="M13056 252 c-3 -5 1 -9 9 -9 8 0 12 4 9 9 -3 4 -7 8 -9 8 -2 0 -6 -4
-9 -8z"/>
<path d="M6940 240 c0 -6 7 -10 15 -10 8 0 15 2 15 4 0 2 -7 6 -15 10 -8 3
-15 1 -15 -4z"/>
<path d="M13061 214 c0 -11 3 -14 6 -6 3 7 2 16 -1 19 -3 4 -6 -2 -5 -13z"/>
<path d="M6915 193 c-16 -14 -25 -24 -20 -22 41 19 65 33 65 41 0 14 -14 8
-45 -19z"/>
<path d="M11681 204 c0 -11 3 -14 6 -6 3 7 2 16 -1 19 -3 4 -6 -2 -5 -13z"/>
<path d="M8340 194 c0 -3 7 -12 15 -20 17 -18 20 -34 5 -34 -5 0 -10 5 -10 10
0 6 -6 10 -14 10 -11 0 -14 -18 -14 -80 l-1 -80 38 0 c35 0 39 3 45 32 3 17 2
36 -3 41 -5 5 -7 24 -4 42 4 24 0 39 -18 59 -21 24 -39 34 -39 20z"/>
<path d="M13076 175 c4 -8 11 -15 16 -15 6 0 5 6 -2 15 -7 8 -14 15 -16 15 -2
0 -1 -7 2 -15z"/>
<path d="M6960 143 c0 -17 6 -34 13 -36 10 -4 10 -6 0 -6 -9 -1 -13 -18 -13
-51 l0 -50 40 0 40 0 0 75 0 75 -28 0 c-15 0 -33 5 -40 12 -9 9 -12 5 -12 -19z"/>
<path d="M7626 144 c-8 -21 -8 -24 3 -24 5 0 11 9 14 20 6 24 -8 27 -17 4z"/>
<path d="M6847 110 c3 -11 7 -20 9 -20 2 0 4 9 4 20 0 11 -4 20 -9 20 -5 0 -7
-9 -4 -20z"/>
<path d="M7799 128 c-5 -17 -4 -48 3 -48 4 0 8 11 8 25 0 20 -7 34 -11 23z"/>
<path d="M13126 96 c7 -19 20 -21 30 -3 4 6 4 9 -1 5 -4 -4 -14 -3 -22 4 -11
8 -12 7 -7 -6z"/>
<path d="M11701 34 c0 -11 3 -14 6 -6 3 7 2 16 -1 19 -3 4 -6 -2 -5 -13z"/>
<path d="M6785 30 c3 -5 8 -10 11 -10 2 0 4 5 4 10 0 6 -5 10 -11 10 -5 0 -7
-4 -4 -10z"/>
<path d="M7178 33 c34 -2 90 -2 125 0 34 2 6 3 -63 3 -69 0 -97 -1 -62 -3z"/>
<path d="M8098 33 c12 -2 32 -2 45 0 12 2 2 4 -23 4 -25 0 -35 -2 -22 -4z"/>
<path d="M11078 33 c67 -2 177 -2 245 0 67 1 12 3 -123 3 -135 0 -190 -2 -122
-3z"/>
<path d="M12298 33 c122 -2 322 -2 445 0 122 1 22 2 -223 2 -245 0 -345 -1
-222 -2z"/>
<path d="M11731 14 c0 -11 3 -14 6 -6 3 7 2 16 -1 19 -3 4 -6 -2 -5 -13z"/>
<path d="M7178 13 c34 -2 90 -2 125 0 34 2 6 3 -63 3 -69 0 -97 -1 -62 -3z"/>
<path d="M7520 10 c0 -5 4 -10 9 -10 6 0 13 5 16 10 3 6 -1 10 -9 10 -9 0 -16
-4 -16 -10z"/>
<path d="M8098 13 c12 -2 32 -2 45 0 12 2 2 4 -23 4 -25 0 -35 -2 -22 -4z"/>
<path d="M11058 13 c56 -2 148 -2 205 0 56 1 10 3 -103 3 -113 0 -159 -2 -102
-3z"/>
<path d="M12298 13 c122 -2 322 -2 445 0 122 1 22 2 -223 2 -245 0 -345 -1
-222 -2z"/>
</g>
</svg>
