<?xml version="1.0" standalone="no"?>
<!DOCTYPE svg PUBLIC "-//W3C//DTD SVG 20010904//EN"
 "http://www.w3.org/TR/2001/REC-SVG-20010904/DTD/svg10.dtd">
<svg version="1.0" xmlns="http://www.w3.org/2000/svg"
 width="1000.000000pt" height="1000.000000pt" viewBox="0 0 1000.000000 1000.000000"
 preserveAspectRatio="xMidYMid meet">
<metadata>
Created by potrace 1.14, written by Peter Selinger 2001-2017
</metadata>
<g transform="translate(0.000000,1000.000000) scale(0.100000,-0.100000)"
fill="#000000" stroke="none">
<path d="M6460 9989 c0 -5 -4 -8 -8 -5 -5 3 -26 -11 -48 -31 -21 -19 -54 -47
-73 -62 -19 -14 -45 -35 -56 -46 -60 -55 -84 -75 -92 -75 -4 0 -14 -9 -21 -20
-7 -11 -19 -20 -28 -20 -9 0 -12 -5 -8 -12 5 -8 2 -9 -10 -5 -9 4 -15 3 -11
-2 3 -5 -22 -31 -55 -57 -33 -26 -60 -51 -60 -55 0 -11 -27 -12 -33 -1 -2 4
-2 1 -1 -6 4 -14 -30 -52 -46 -52 -5 0 -10 -5 -10 -12 0 -6 -3 -9 -6 -5 -8 7
-34 -17 -34 -32 0 -6 -7 -8 -16 -4 -10 4 -17 -1 -21 -16 -3 -11 -12 -21 -19
-21 -8 0 -14 -5 -14 -11 0 -6 -7 -9 -14 -6 -11 4 -13 1 -9 -11 6 -14 4 -15 -9
-4 -11 9 -18 10 -23 2 -3 -6 -10 -8 -14 -6 -4 3 -8 -1 -8 -9 0 -13 4 -12 19 2
10 9 18 12 18 6 0 -15 -35 -44 -44 -36 -11 11 -44 14 -50 4 -3 -5 2 -15 12
-22 15 -13 16 -12 4 3 -12 15 -11 17 7 15 20 -1 31 -27 12 -27 -5 0 -22 -13
-38 -29 -24 -24 -32 -27 -46 -16 -9 6 -13 16 -9 20 4 5 2 5 -5 1 -7 -4 -10
-13 -7 -21 4 -8 10 -12 15 -9 17 10 9 -12 -11 -29 -20 -17 -55 -13 -43 6 4 6
1 7 -7 2 -10 -6 -10 -11 3 -20 24 -17 21 -22 -13 -27 -23 -3 -30 -1 -26 9 3 7
1 13 -5 13 -6 0 -9 -8 -7 -17 2 -11 11 -17 22 -15 13 3 8 -7 -19 -32 -21 -20
-44 -36 -52 -36 -8 0 -11 -5 -7 -12 5 -8 2 -9 -10 -5 -9 4 -15 3 -12 -2 7 -11
-52 -63 -65 -56 -5 4 -6 12 -2 18 4 7 -2 5 -13 -3 -29 -22 -30 -24 -12 -17 10
3 20 2 23 -2 7 -12 -22 -34 -33 -27 -6 3 -9 0 -8 -7 0 -6 -3 -14 -8 -17 -5 -3
-32 -27 -60 -53 -28 -27 -60 -53 -71 -58 -43 -19 -156 -85 -175 -101 -11 -10
-20 -15 -20 -11 0 3 -9 -2 -20 -12 -11 -10 -20 -15 -20 -11 0 4 -10 -2 -22
-13 -11 -11 -25 -18 -29 -15 -4 2 -12 -4 -18 -13 -6 -10 -11 -15 -11 -11 0 5
-32 -12 -70 -37 -39 -25 -72 -45 -75 -45 -2 0 -26 -15 -52 -32 -26 -18 -60
-40 -74 -48 -97 -56 -229 -143 -229 -151 0 -5 -6 -9 -14 -9 -8 0 -21 -6 -28
-12 -7 -7 -53 -40 -103 -73 -49 -33 -92 -62 -95 -65 -3 -3 -18 -14 -35 -24
-16 -11 -34 -23 -40 -28 -5 -5 -50 -38 -100 -75 -49 -37 -94 -71 -100 -75 -5
-5 -37 -30 -70 -56 -56 -44 -91 -73 -119 -97 -6 -5 -31 -28 -56 -49 -228 -198
-524 -495 -564 -565 -5 -9 -18 -22 -28 -29 -10 -7 -18 -18 -18 -24 0 -6 -6
-16 -14 -22 -32 -26 -315 -388 -396 -506 -25 -36 -47 -67 -50 -70 -3 -3 -14
-21 -24 -40 -11 -19 -22 -37 -26 -40 -3 -3 -17 -23 -30 -45 -13 -22 -30 -46
-37 -53 -7 -7 -13 -20 -13 -28 0 -8 -4 -14 -9 -14 -7 0 -63 -83 -69 -102 -2
-4 -14 -20 -27 -34 -14 -15 -25 -33 -25 -40 0 -8 -4 -14 -10 -14 -5 0 -10 -7
-10 -15 0 -8 -3 -15 -7 -15 -5 0 -19 -17 -33 -37 -14 -21 -32 -45 -40 -54 -8
-9 -22 -26 -31 -38 -56 -75 -241 -241 -268 -241 -6 0 -11 -4 -11 -10 0 -5 -6
-10 -14 -10 -8 0 -16 -3 -18 -7 -4 -10 -107 -73 -118 -73 -5 0 -10 -4 -12 -8
-4 -9 -206 -112 -216 -110 -30 7 -173 -37 -222 -70 -14 -9 -28 -17 -32 -17 -4
0 -15 -6 -25 -13 -10 -7 -42 -28 -72 -47 -30 -19 -57 -38 -60 -42 -3 -5 -24
-21 -46 -38 -49 -36 -115 -102 -115 -114 0 -5 -6 -11 -13 -14 -7 -3 -26 -24
-42 -48 -17 -24 -33 -46 -36 -49 -25 -20 -109 -227 -124 -307 -2 -10 -4 -18
-5 -18 -3 0 -11 -47 -24 -141 -13 -95 -14 -330 -2 -424 18 -134 60 -307 96
-400 32 -83 121 -265 131 -268 5 -2 9 -8 9 -14 0 -11 84 -140 104 -161 7 -6
17 -19 22 -28 14 -25 81 -104 159 -187 64 -69 124 -110 144 -98 4 3 29 6 57 7
27 1 57 6 66 11 12 6 18 5 18 -2 0 -6 4 -9 8 -6 5 3 31 8 58 12 62 8 80 11
107 20 20 6 21 5 7 -12 -8 -10 -19 -23 -25 -29 -5 -5 -23 -30 -40 -55 -38 -58
-42 -125 -8 -147 12 -8 32 -23 44 -34 12 -10 28 -19 36 -19 7 0 13 -4 13 -8 0
-11 230 -113 285 -127 6 -1 23 -7 38 -13 16 -7 30 -12 31 -12 2 0 25 -10 52
-22 27 -12 51 -23 54 -23 3 0 21 -8 40 -17 19 -9 62 -26 95 -38 33 -12 74 -28
90 -35 40 -17 182 -63 220 -71 57 -12 140 -10 185 4 25 7 56 16 69 18 13 3 34
10 45 16 12 7 26 13 31 14 22 4 121 38 130 44 8 6 37 15 75 25 10 2 145 47
160 52 22 9 21 9 65 18 22 4 45 10 50 14 6 3 17 7 25 8 14 3 134 36 420 118
37 11 166 46 180 50 8 2 15 4 15 5 0 1 11 3 24 6 13 2 60 14 105 25 45 12 91
23 104 25 30 5 62 12 92 19 14 3 39 8 55 11 17 3 49 9 73 15 23 5 59 12 80 14
69 10 117 17 137 21 11 3 35 5 53 6 18 1 35 5 37 9 8 13 46 -3 78 -33 43 -39
162 -118 179 -118 7 0 20 -6 29 -13 24 -18 141 -206 160 -257 32 -86 32 -86
-1 -119 -18 -17 -28 -31 -24 -31 5 0 -2 -7 -14 -16 -12 -8 -22 -22 -22 -30 0
-8 -4 -14 -9 -14 -10 0 -37 -94 -46 -160 -3 -25 -9 -65 -13 -90 -3 -25 -6 -57
-7 -72 0 -16 -3 -28 -6 -28 -3 0 -7 -42 -7 -93 -1 -106 17 -159 64 -196 35
-28 36 -35 7 -88 -13 -24 -21 -43 -17 -43 4 0 2 -6 -4 -12 -5 -7 -28 -48 -51
-90 -22 -43 -48 -90 -58 -104 -9 -15 -18 -34 -19 -42 -2 -8 -7 -18 -12 -21 -9
-6 -40 -62 -44 -78 -1 -5 -6 -12 -11 -18 -5 -5 -33 -52 -61 -104 l-53 -95 -51
-11 c-29 -7 -52 -10 -52 -8 0 15 -100 -54 -120 -83 -14 -19 -31 -42 -39 -50
-16 -18 -111 -163 -111 -170 0 -3 -11 -20 -25 -38 -14 -18 -22 -36 -18 -39 3
-4 1 -7 -6 -7 -7 0 -9 -4 -6 -10 3 -5 2 -10 -2 -10 -5 0 -17 -17 -28 -37 -11
-21 -22 -40 -25 -43 -24 -23 -38 -62 -35 -103 2 -39 -2 -52 -27 -81 -29 -34
-46 -40 -139 -51 -54 -7 -71 -10 -117 -24 -18 -5 -34 -10 -37 -11 -47 -9 -130
-45 -177 -77 -52 -34 -52 -34 -132 -27 -45 4 -135 8 -201 8 -200 0 -287 -16
-640 -118 -49 -15 -99 -28 -110 -31 -138 -34 -242 -33 3583 -34 l3702 -1 0
386 c0 329 -2 388 -15 400 -8 9 -15 13 -15 10 0 -4 -13 6 -30 21 -19 17 -27
30 -21 37 11 13 62 156 56 156 -2 0 3 16 11 35 22 53 21 955 -2 1040 -8 33
-17 68 -19 79 -3 10 -7 21 -10 24 -3 3 6 20 20 38 l25 33 0 847 c0 941 3 895
-66 1049 -14 31 -23 113 -14 128 12 21 19 481 8 572 -4 33 -10 80 -13 105 -4
40 -11 86 -21 145 -2 11 -5 34 -8 50 -9 61 -17 100 -22 116 -2 10 -6 31 -9 48
-2 17 -6 39 -10 50 -3 11 -8 30 -11 43 -3 13 -7 32 -9 43 -3 11 -7 30 -9 42
-3 13 -17 67 -31 120 -23 86 -37 133 -64 208 -21 58 -99 207 -133 253 -21 29
-37 56 -34 61 18 28 30 277 14 287 -5 3 -6 9 -3 14 3 5 1 28 -4 52 -5 24 -12
59 -15 79 -3 20 -10 47 -15 60 -5 13 -9 26 -9 29 0 26 -51 178 -87 265 -28 66
-115 237 -136 267 -11 15 -17 28 -12 28 4 0 37 5 73 11 36 6 76 13 90 15 14 2
39 6 55 8 17 2 48 7 70 10 50 7 106 14 123 15 6 1 12 7 12 15 0 8 5 27 12 43
6 15 12 33 13 38 7 30 39 133 47 152 6 11 7 26 4 32 -4 6 -3 11 3 11 5 0 13
15 17 33 4 17 9 35 10 40 1 4 3 9 4 12 1 3 4 10 5 15 1 6 4 12 5 15 4 8 7 17
15 52 4 18 12 37 19 41 14 11 67 26 83 23 12 -2 21 21 26 69 1 14 7 28 12 32
6 5 11 168 13 446 l3 439 -38 -3 c-62 -6 -216 -17 -240 -17 -13 -1 -23 -3 -23
-6 0 -4 -26 -6 -58 -7 -31 0 -95 -3 -142 -8 -47 -4 -116 -9 -155 -12 -38 -3
-88 -7 -110 -10 -22 -2 -71 -6 -110 -8 -38 -3 -99 -7 -135 -10 -132 -11 -187
-16 -260 -21 -41 -3 -91 -8 -110 -10 -19 -2 -75 -7 -125 -10 -49 -3 -115 -8
-145 -11 -57 -6 -103 -10 -230 -19 -41 -3 -95 -7 -120 -10 -45 -4 -110 19
-110 39 0 5 47 55 105 110 263 255 376 361 385 364 6 2 8 8 4 13 -3 5 -1 9 4
9 5 0 34 24 64 53 54 51 55 54 57 112 4 124 4 124 44 160 21 19 42 35 48 35 5
0 9 4 9 8 0 5 19 23 43 40 23 17 60 47 82 67 38 34 43 35 95 31 30 -3 68 -9
85 -14 32 -9 35 -7 132 86 24 23 46 42 47 42 2 0 114 102 200 183 l40 37
-1437 0 c-1005 0 -1437 -3 -1437 -11z"/>
<path d="M5956 9753 c-6 -14 -5 -15 5 -6 7 7 10 15 7 18 -3 3 -9 -2 -12 -12z"/>
<path d="M5590 9619 c0 -5 5 -7 10 -4 6 3 10 8 10 11 0 2 -4 4 -10 4 -5 0 -10
-5 -10 -11z"/>
<path d="M5856 9621 c-3 -5 2 -15 12 -22 15 -12 16 -12 5 2 -7 9 -10 19 -6 22
3 4 4 7 0 7 -3 0 -8 -4 -11 -9z"/>
<path d="M5735 9580 c3 -5 8 -10 11 -10 2 0 4 5 4 10 0 6 -5 10 -11 10 -5 0
-7 -4 -4 -10z"/>
<path d="M5787 9559 c7 -7 15 -10 18 -7 3 3 -2 9 -12 12 -14 6 -15 5 -6 -5z"/>
<path d="M5756 9542 c-3 -5 1 -9 9 -9 8 0 12 4 9 9 -3 4 -7 8 -9 8 -2 0 -6 -4
-9 -8z"/>
<path d="M5825 9540 c-3 -6 1 -7 9 -4 18 7 21 14 7 14 -6 0 -13 -4 -16 -10z"/>
<path d="M5789 9503 c-11 -15 -11 -16 1 -5 18 15 34 16 24 0 -4 -7 -3 -8 5 -4
12 8 6 26 -8 26 -5 0 -15 -8 -22 -17z"/>
<path d="M5686 9485 c-18 -14 -18 -14 1 -12 11 0 20 7 20 14 0 7 -1 13 -1 13
-1 0 -9 -7 -20 -15z"/>
<path d="M5740 9483 c14 -22 30 -22 30 -1 0 6 -3 8 -7 5 -3 -4 -13 -1 -21 6
-13 11 -14 9 -2 -10z"/>
<path d="M5540 9486 c0 -2 8 -10 18 -17 15 -13 16 -12 3 4 -13 16 -21 21 -21
13z"/>
<path d="M5776 9461 c-4 -5 3 -7 14 -4 23 6 26 13 6 13 -8 0 -17 -4 -20 -9z"/>
<path d="M5716 9447 c3 -10 9 -15 12 -12 3 3 0 11 -7 18 -10 9 -11 8 -5 -6z"/>
<path d="M5638 9428 c-7 -17 15 -19 29 -3 4 4 3 5 -4 2 -6 -4 -13 -2 -15 5 -3
8 -6 6 -10 -4z"/>
<path d="M5675 9410 c-3 -5 -1 -10 4 -10 6 0 11 5 11 10 0 6 -2 10 -4 10 -3 0
-8 -4 -11 -10z"/>
<path d="M5455 9400 c3 -5 8 -10 11 -10 2 0 4 5 4 10 0 6 -5 10 -11 10 -5 0
-7 -4 -4 -10z"/>
<path d="M5514 9402 c8 -7 66 -10 70 -3 2 3 -13 7 -35 7 -22 1 -37 -1 -35 -4z"/>
<path d="M5599 9393 c-13 -16 -12 -17 4 -4 9 7 17 15 17 17 0 8 -8 3 -21 -13z"/>
<path d="M5615 9380 c-3 -6 1 -13 9 -16 9 -3 16 -10 16 -16 0 -5 -4 -7 -9 -3
-15 9 -25 -15 -12 -28 9 -9 10 -7 5 8 -7 17 -5 18 7 8 12 -10 15 -8 16 8 1 11
-5 23 -13 26 -7 3 -11 9 -8 14 3 5 3 9 0 9 -3 0 -8 -5 -11 -10z"/>
<path d="M5584 9355 c-4 -8 -11 -12 -17 -8 -6 4 -7 1 -2 -7 6 -10 11 -10 20 3
7 9 16 13 20 9 5 -4 5 -1 1 6 -9 16 -15 15 -22 -3z"/>
<path d="M5550 9321 c0 -6 4 -13 10 -16 6 -3 7 1 4 9 -7 18 -14 21 -14 7z"/>
<path d="M5439 9318 c-5 -18 -6 -38 -1 -34 7 8 12 36 6 36 -2 0 -4 -1 -5 -2z"/>
<path d="M5471 9307 c-8 -10 -7 -14 2 -14 8 0 14 6 14 14 0 7 -1 13 -2 13 -2
0 -8 -6 -14 -13z"/>
<path d="M5516 9301 c-18 -7 -18 -8 -3 -14 9 -3 17 -2 17 4 0 6 5 7 12 3 7 -4
8 -3 4 4 -4 7 -8 12 -9 11 -1 0 -11 -4 -21 -8z"/>
<path d="M5560 9280 c0 -5 5 -10 10 -10 6 0 10 5 10 10 0 6 -4 10 -10 10 -5 0
-10 -4 -10 -10z"/>
<path d="M5422 9244 c10 -10 20 -16 22 -13 3 3 -5 11 -17 18 -21 13 -21 12 -5
-5z"/>
<path d="M5455 9235 c0 -13 3 -21 8 -18 4 2 7 10 7 18 0 8 -3 16 -7 18 -5 3
-8 -5 -8 -18z"/>
<path d="M5293 9225 c0 -8 4 -12 9 -9 5 3 6 10 3 15 -9 13 -12 11 -12 -6z"/>
<path d="M5398 9213 c7 -3 16 -2 19 1 4 3 -2 6 -13 5 -11 0 -14 -3 -6 -6z"/>
<path d="M5470 9195 c0 -8 2 -15 4 -15 2 0 6 7 10 15 3 8 1 15 -4 15 -6 0 -10
-7 -10 -15z"/>
<path d="M5293 9169 c-2 -23 3 -25 10 -4 4 8 3 16 -1 19 -4 3 -9 -4 -9 -15z"/>
<path d="M5359 9188 c-7 -23 -4 -35 7 -35 9 0 11 4 4 12 -5 7 -7 15 -3 18 3 4
3 7 0 7 -4 0 -7 -1 -8 -2z"/>
<path d="M5391 9173 c6 -7 7 -18 3 -24 -5 -8 -3 -9 5 -5 7 5 10 14 7 21 -3 8
0 16 7 18 7 3 2 4 -10 4 -16 -1 -19 -4 -12 -14z"/>
<path d="M5437 9179 c7 -7 15 -10 18 -7 3 3 -2 9 -12 12 -14 6 -15 5 -6 -5z"/>
<path d="M5250 9160 c0 -5 5 -10 11 -10 5 0 7 5 4 10 -3 6 -8 10 -11 10 -2 0
-4 -4 -4 -10z"/>
<path d="M5226 9122 c-3 -5 1 -9 9 -9 8 0 12 4 9 9 -3 4 -7 8 -9 8 -2 0 -6 -4
-9 -8z"/>
<path d="M5385 9120 c-3 -5 -1 -10 4 -10 6 0 11 5 11 10 0 6 -2 10 -4 10 -3 0
-8 -4 -11 -10z"/>
<path d="M1569 105 c-2 -1 -22 -5 -44 -8 -65 -9 -136 -26 -200 -49 -141 -49
-158 -47 375 -47 428 1 491 2 465 14 -16 8 -38 14 -47 15 -9 0 -19 4 -22 9 -3
5 -20 11 -38 14 -18 2 -78 14 -133 27 -87 19 -343 38 -356 25z"/>
</g>
</svg>
